<?xml version="1.0" standalone="no"?>
 <!DOCTYPE svg PUBLIC "-//W3C//DTD SVG 1.1//EN" 
 "http://www.w3.org/Graphics/SVG/1.1/DTD/svg11.dtd"> 
<svg
  xmlns:svg="http://www.w3.org/2000/svg"
  xmlns="http://www.w3.org/2000/svg"
  xmlns:xlink="http://www.w3.org/1999/xlink"
  version="1.1"
  width="38.5826mm" height="17.0942mm" viewBox="0.0000 0.0000 38.5826 17.0942">
<title>SVG Image created as GND_symbol.svg date 2024/09/04 17:43:44 </title>
  <desc>Image generated by Eeschema-SVG </desc>
<g style="fill:#000000; fill-opacity:1.0000;stroke:#000000; stroke-opacity:1.0000;
stroke-linecap:round; stroke-linejoin:round;"
 transform="translate(0 0) scale(1 1)">
</g>
<g style="fill:none; 
stroke:#840000; stroke-width:0.1524; stroke-opacity:1; 
stroke-linecap:round; stroke-linejoin:round;">
<path d="M25.6420 2.9531 A2.5400 2.5400 0.0 1 0 25.6420 8.0329" />
</g>
<g style="fill:none; 
stroke:#840000; stroke-width:0.1588; stroke-opacity:1; 
stroke-linecap:round; stroke-linejoin:round;">
<text x="19.2920" y="10.1922"
textLength="28.5249" font-size="1.6933" lengthAdjust="spacingAndGlyphs"
text-anchor="middle" opacity="0">Jacdac ground Gerber socket</text>
<g class="stroked-text"><desc>Jacdac ground Gerber socket</desc>
<path d="M5.8060 8.8664
L5.8060 9.7736
" />
<path d="M5.8060 9.7736
L5.7455 9.9550
" />
<path d="M5.7455 9.9550
L5.6246 10.0760
" />
<path d="M5.6246 10.0760
L5.4431 10.1364
" />
<path d="M5.4431 10.1364
L5.3222 10.1364
" />
<path d="M6.9550 10.1364
L6.9550 9.4712
" />
<path d="M6.9550 9.4712
L6.8945 9.3502
" />
<path d="M6.8945 9.3502
L6.7736 9.2898
" />
<path d="M6.7736 9.2898
L6.5317 9.2898
" />
<path d="M6.5317 9.2898
L6.4107 9.3502
" />
<path d="M6.9550 10.0760
L6.8341 10.1364
" />
<path d="M6.8341 10.1364
L6.5317 10.1364
" />
<path d="M6.5317 10.1364
L6.4107 10.0760
" />
<path d="M6.4107 10.0760
L6.3503 9.9550
" />
<path d="M6.3503 9.9550
L6.3503 9.8340
" />
<path d="M6.3503 9.8340
L6.4107 9.7131
" />
<path d="M6.4107 9.7131
L6.5317 9.6526
" />
<path d="M6.5317 9.6526
L6.8341 9.6526
" />
<path d="M6.8341 9.6526
L6.9550 9.5921
" />
<path d="M8.1040 10.0760
L7.9831 10.1364
" />
<path d="M7.9831 10.1364
L7.7412 10.1364
" />
<path d="M7.7412 10.1364
L7.6202 10.0760
" />
<path d="M7.6202 10.0760
L7.5597 10.0155
" />
<path d="M7.5597 10.0155
L7.4993 9.8945
" />
<path d="M7.4993 9.8945
L7.4993 9.5317
" />
<path d="M7.4993 9.5317
L7.5597 9.4107
" />
<path d="M7.5597 9.4107
L7.6202 9.3502
" />
<path d="M7.6202 9.3502
L7.7412 9.2898
" />
<path d="M7.7412 9.2898
L7.9831 9.2898
" />
<path d="M7.9831 9.2898
L8.1040 9.3502
" />
<path d="M9.1926 10.1364
L9.1926 8.8664
" />
<path d="M9.1926 10.0760
L9.0717 10.1364
" />
<path d="M9.0717 10.1364
L8.8298 10.1364
" />
<path d="M8.8298 10.1364
L8.7088 10.0760
" />
<path d="M8.7088 10.0760
L8.6483 10.0155
" />
<path d="M8.6483 10.0155
L8.5879 9.8945
" />
<path d="M8.5879 9.8945
L8.5879 9.5317
" />
<path d="M8.5879 9.5317
L8.6483 9.4107
" />
<path d="M8.6483 9.4107
L8.7088 9.3502
" />
<path d="M8.7088 9.3502
L8.8298 9.2898
" />
<path d="M8.8298 9.2898
L9.0717 9.2898
" />
<path d="M9.0717 9.2898
L9.1926 9.3502
" />
<path d="M10.3416 10.1364
L10.3416 9.4712
" />
<path d="M10.3416 9.4712
L10.2811 9.3502
" />
<path d="M10.2811 9.3502
L10.1602 9.2898
" />
<path d="M10.1602 9.2898
L9.9183 9.2898
" />
<path d="M9.9183 9.2898
L9.7973 9.3502
" />
<path d="M10.3416 10.0760
L10.2207 10.1364
" />
<path d="M10.2207 10.1364
L9.9183 10.1364
" />
<path d="M9.9183 10.1364
L9.7973 10.0760
" />
<path d="M9.7973 10.0760
L9.7369 9.9550
" />
<path d="M9.7369 9.9550
L9.7369 9.8340
" />
<path d="M9.7369 9.8340
L9.7973 9.7131
" />
<path d="M9.7973 9.7131
L9.9183 9.6526
" />
<path d="M9.9183 9.6526
L10.2207 9.6526
" />
<path d="M10.2207 9.6526
L10.3416 9.5921
" />
<path d="M11.4906 10.0760
L11.3697 10.1364
" />
<path d="M11.3697 10.1364
L11.1278 10.1364
" />
<path d="M11.1278 10.1364
L11.0068 10.0760
" />
<path d="M11.0068 10.0760
L10.9463 10.0155
" />
<path d="M10.9463 10.0155
L10.8859 9.8945
" />
<path d="M10.8859 9.8945
L10.8859 9.5317
" />
<path d="M10.8859 9.5317
L10.9463 9.4107
" />
<path d="M10.9463 9.4107
L11.0068 9.3502
" />
<path d="M11.0068 9.3502
L11.1278 9.2898
" />
<path d="M11.1278 9.2898
L11.3697 9.2898
" />
<path d="M11.3697 9.2898
L11.4906 9.3502
" />
<path d="M13.5468 9.2898
L13.5468 10.3179
" />
<path d="M13.5468 10.3179
L13.4863 10.4388
" />
<path d="M13.4863 10.4388
L13.4259 10.4993
" />
<path d="M13.4259 10.4993
L13.3049 10.5598
" />
<path d="M13.3049 10.5598
L13.1235 10.5598
" />
<path d="M13.1235 10.5598
L13.0025 10.4993
" />
<path d="M13.5468 10.0760
L13.4259 10.1364
" />
<path d="M13.4259 10.1364
L13.1840 10.1364
" />
<path d="M13.1840 10.1364
L13.0630 10.0760
" />
<path d="M13.0630 10.0760
L13.0025 10.0155
" />
<path d="M13.0025 10.0155
L12.9421 9.8945
" />
<path d="M12.9421 9.8945
L12.9421 9.5317
" />
<path d="M12.9421 9.5317
L13.0025 9.4107
" />
<path d="M13.0025 9.4107
L13.0630 9.3502
" />
<path d="M13.0630 9.3502
L13.1840 9.2898
" />
<path d="M13.1840 9.2898
L13.4259 9.2898
" />
<path d="M13.4259 9.2898
L13.5468 9.3502
" />
<path d="M14.1515 10.1364
L14.1515 9.2898
" />
<path d="M14.1515 9.5317
L14.2120 9.4107
" />
<path d="M14.2120 9.4107
L14.2725 9.3502
" />
<path d="M14.2725 9.3502
L14.3934 9.2898
" />
<path d="M14.3934 9.2898
L14.5144 9.2898
" />
<path d="M15.1192 10.1364
L14.9982 10.0760
" />
<path d="M14.9982 10.0760
L14.9377 10.0155
" />
<path d="M14.9377 10.0155
L14.8773 9.8945
" />
<path d="M14.8773 9.8945
L14.8773 9.5317
" />
<path d="M14.8773 9.5317
L14.9377 9.4107
" />
<path d="M14.9377 9.4107
L14.9982 9.3502
" />
<path d="M14.9982 9.3502
L15.1192 9.2898
" />
<path d="M15.1192 9.2898
L15.3006 9.2898
" />
<path d="M15.3006 9.2898
L15.4215 9.3502
" />
<path d="M15.4215 9.3502
L15.4820 9.4107
" />
<path d="M15.4820 9.4107
L15.5425 9.5317
" />
<path d="M15.5425 9.5317
L15.5425 9.8945
" />
<path d="M15.5425 9.8945
L15.4820 10.0155
" />
<path d="M15.4820 10.0155
L15.4215 10.0760
" />
<path d="M15.4215 10.0760
L15.3006 10.1364
" />
<path d="M15.3006 10.1364
L15.1192 10.1364
" />
<path d="M16.6310 9.2898
L16.6310 10.1364
" />
<path d="M16.0867 9.2898
L16.0867 9.9550
" />
<path d="M16.0867 9.9550
L16.1472 10.0760
" />
<path d="M16.1472 10.0760
L16.2682 10.1364
" />
<path d="M16.2682 10.1364
L16.4496 10.1364
" />
<path d="M16.4496 10.1364
L16.5705 10.0760
" />
<path d="M16.5705 10.0760
L16.6310 10.0155
" />
<path d="M17.2357 9.2898
L17.2357 10.1364
" />
<path d="M17.2357 9.4107
L17.2962 9.3502
" />
<path d="M17.2962 9.3502
L17.4172 9.2898
" />
<path d="M17.4172 9.2898
L17.5986 9.2898
" />
<path d="M17.5986 9.2898
L17.7195 9.3502
" />
<path d="M17.7195 9.3502
L17.7800 9.4712
" />
<path d="M17.7800 9.4712
L17.7800 10.1364
" />
<path d="M18.9290 10.1364
L18.9290 8.8664
" />
<path d="M18.9290 10.0760
L18.8081 10.1364
" />
<path d="M18.8081 10.1364
L18.5662 10.1364
" />
<path d="M18.5662 10.1364
L18.4452 10.0760
" />
<path d="M18.4452 10.0760
L18.3847 10.0155
" />
<path d="M18.3847 10.0155
L18.3243 9.8945
" />
<path d="M18.3243 9.8945
L18.3243 9.5317
" />
<path d="M18.3243 9.5317
L18.3847 9.4107
" />
<path d="M18.3847 9.4107
L18.4452 9.3502
" />
<path d="M18.4452 9.3502
L18.5662 9.2898
" />
<path d="M18.5662 9.2898
L18.8081 9.2898
" />
<path d="M18.8081 9.2898
L18.9290 9.3502
" />
<path d="M21.1666 8.9269
L21.0456 8.8664
" />
<path d="M21.0456 8.8664
L20.8642 8.8664
" />
<path d="M20.8642 8.8664
L20.6828 8.9269
" />
<path d="M20.6828 8.9269
L20.5618 9.0479
" />
<path d="M20.5618 9.0479
L20.5013 9.1688
" />
<path d="M20.5013 9.1688
L20.4409 9.4107
" />
<path d="M20.4409 9.4107
L20.4409 9.5921
" />
<path d="M20.4409 9.5921
L20.5013 9.8340
" />
<path d="M20.5013 9.8340
L20.5618 9.9550
" />
<path d="M20.5618 9.9550
L20.6828 10.0760
" />
<path d="M20.6828 10.0760
L20.8642 10.1364
" />
<path d="M20.8642 10.1364
L20.9851 10.1364
" />
<path d="M20.9851 10.1364
L21.1666 10.0760
" />
<path d="M21.1666 10.0760
L21.2270 10.0155
" />
<path d="M21.2270 10.0155
L21.2270 9.5921
" />
<path d="M21.2270 9.5921
L20.9851 9.5921
" />
<path d="M22.2551 10.0760
L22.1342 10.1364
" />
<path d="M22.1342 10.1364
L21.8923 10.1364
" />
<path d="M21.8923 10.1364
L21.7713 10.0760
" />
<path d="M21.7713 10.0760
L21.7109 9.9550
" />
<path d="M21.7109 9.9550
L21.7109 9.4712
" />
<path d="M21.7109 9.4712
L21.7713 9.3502
" />
<path d="M21.7713 9.3502
L21.8923 9.2898
" />
<path d="M21.8923 9.2898
L22.1342 9.2898
" />
<path d="M22.1342 9.2898
L22.2551 9.3502
" />
<path d="M22.2551 9.3502
L22.3156 9.4712
" />
<path d="M22.3156 9.4712
L22.3156 9.5921
" />
<path d="M22.3156 9.5921
L21.7109 9.7131
" />
<path d="M22.8599 10.1364
L22.8599 9.2898
" />
<path d="M22.8599 9.5317
L22.9204 9.4107
" />
<path d="M22.9204 9.4107
L22.9809 9.3502
" />
<path d="M22.9809 9.3502
L23.1018 9.2898
" />
<path d="M23.1018 9.2898
L23.2228 9.2898
" />
<path d="M23.6461 10.1364
L23.6461 8.8664
" />
<path d="M23.6461 9.3502
L23.7671 9.2898
" />
<path d="M23.7671 9.2898
L24.0090 9.2898
" />
<path d="M24.0090 9.2898
L24.1299 9.3502
" />
<path d="M24.1299 9.3502
L24.1904 9.4107
" />
<path d="M24.1904 9.4107
L24.2509 9.5317
" />
<path d="M24.2509 9.5317
L24.2509 9.8945
" />
<path d="M24.2509 9.8945
L24.1904 10.0155
" />
<path d="M24.1904 10.0155
L24.1299 10.0760
" />
<path d="M24.1299 10.0760
L24.0090 10.1364
" />
<path d="M24.0090 10.1364
L23.7671 10.1364
" />
<path d="M23.7671 10.1364
L23.6461 10.0760
" />
<path d="M25.2789 10.0760
L25.1580 10.1364
" />
<path d="M25.1580 10.1364
L24.9161 10.1364
" />
<path d="M24.9161 10.1364
L24.7951 10.0760
" />
<path d="M24.7951 10.0760
L24.7347 9.9550
" />
<path d="M24.7347 9.9550
L24.7347 9.4712
" />
<path d="M24.7347 9.4712
L24.7951 9.3502
" />
<path d="M24.7951 9.3502
L24.9161 9.2898
" />
<path d="M24.9161 9.2898
L25.1580 9.2898
" />
<path d="M25.1580 9.2898
L25.2789 9.3502
" />
<path d="M25.2789 9.3502
L25.3394 9.4712
" />
<path d="M25.3394 9.4712
L25.3394 9.5921
" />
<path d="M25.3394 9.5921
L24.7347 9.7131
" />
<path d="M25.8837 10.1364
L25.8837 9.2898
" />
<path d="M25.8837 9.5317
L25.9442 9.4107
" />
<path d="M25.9442 9.4107
L26.0047 9.3502
" />
<path d="M26.0047 9.3502
L26.1256 9.2898
" />
<path d="M26.1256 9.2898
L26.2466 9.2898
" />
<path d="M27.5771 10.0760
L27.6980 10.1364
" />
<path d="M27.6980 10.1364
L27.9399 10.1364
" />
<path d="M27.9399 10.1364
L28.0609 10.0760
" />
<path d="M28.0609 10.0760
L28.1213 9.9550
" />
<path d="M28.1213 9.9550
L28.1213 9.8945
" />
<path d="M28.1213 9.8945
L28.0609 9.7736
" />
<path d="M28.0609 9.7736
L27.9399 9.7131
" />
<path d="M27.9399 9.7131
L27.7585 9.7131
" />
<path d="M27.7585 9.7131
L27.6375 9.6526
" />
<path d="M27.6375 9.6526
L27.5771 9.5317
" />
<path d="M27.5771 9.5317
L27.5771 9.4712
" />
<path d="M27.5771 9.4712
L27.6375 9.3502
" />
<path d="M27.6375 9.3502
L27.7585 9.2898
" />
<path d="M27.7585 9.2898
L27.9399 9.2898
" />
<path d="M27.9399 9.2898
L28.0609 9.3502
" />
<path d="M28.8471 10.1364
L28.7261 10.0760
" />
<path d="M28.7261 10.0760
L28.6656 10.0155
" />
<path d="M28.6656 10.0155
L28.6052 9.8945
" />
<path d="M28.6052 9.8945
L28.6052 9.5317
" />
<path d="M28.6052 9.5317
L28.6656 9.4107
" />
<path d="M28.6656 9.4107
L28.7261 9.3502
" />
<path d="M28.7261 9.3502
L28.8471 9.2898
" />
<path d="M28.8471 9.2898
L29.0285 9.2898
" />
<path d="M29.0285 9.2898
L29.1494 9.3502
" />
<path d="M29.1494 9.3502
L29.2099 9.4107
" />
<path d="M29.2099 9.4107
L29.2704 9.5317
" />
<path d="M29.2704 9.5317
L29.2704 9.8945
" />
<path d="M29.2704 9.8945
L29.2099 10.0155
" />
<path d="M29.2099 10.0155
L29.1494 10.0760
" />
<path d="M29.1494 10.0760
L29.0285 10.1364
" />
<path d="M29.0285 10.1364
L28.8471 10.1364
" />
<path d="M30.3589 10.0760
L30.2380 10.1364
" />
<path d="M30.2380 10.1364
L29.9961 10.1364
" />
<path d="M29.9961 10.1364
L29.8751 10.0760
" />
<path d="M29.8751 10.0760
L29.8146 10.0155
" />
<path d="M29.8146 10.0155
L29.7542 9.8945
" />
<path d="M29.7542 9.8945
L29.7542 9.5317
" />
<path d="M29.7542 9.5317
L29.8146 9.4107
" />
<path d="M29.8146 9.4107
L29.8751 9.3502
" />
<path d="M29.8751 9.3502
L29.9961 9.2898
" />
<path d="M29.9961 9.2898
L30.2380 9.2898
" />
<path d="M30.2380 9.2898
L30.3589 9.3502
" />
<path d="M30.9032 10.1364
L30.9032 8.8664
" />
<path d="M31.0242 9.6526
L31.3870 10.1364
" />
<path d="M31.3870 9.2898
L30.9032 9.7736
" />
<path d="M32.4151 10.0760
L32.2942 10.1364
" />
<path d="M32.2942 10.1364
L32.0523 10.1364
" />
<path d="M32.0523 10.1364
L31.9313 10.0760
" />
<path d="M31.9313 10.0760
L31.8709 9.9550
" />
<path d="M31.8709 9.9550
L31.8709 9.4712
" />
<path d="M31.8709 9.4712
L31.9313 9.3502
" />
<path d="M31.9313 9.3502
L32.0523 9.2898
" />
<path d="M32.0523 9.2898
L32.2942 9.2898
" />
<path d="M32.2942 9.2898
L32.4151 9.3502
" />
<path d="M32.4151 9.3502
L32.4756 9.4712
" />
<path d="M32.4756 9.4712
L32.4756 9.5921
" />
<path d="M32.4756 9.5921
L31.8709 9.7131
" />
<path d="M32.8385 9.2898
L33.3223 9.2898
" />
<path d="M33.0199 8.8664
L33.0199 9.9550
" />
<path d="M33.0199 9.9550
L33.0804 10.0760
" />
<path d="M33.0804 10.0760
L33.2014 10.1364
" />
<path d="M33.2014 10.1364
L33.3223 10.1364
" />
</g></g>
<g style="fill:none; 
stroke:#840000; stroke-width:0.1524; stroke-opacity:1; 
stroke-linecap:round; stroke-linejoin:round;">
<path d="M23.1020 5.4931
L19.2920 5.4931
" />
</g>
<g style="fill:none; 
stroke:#006464; stroke-width:0.1524; stroke-opacity:1; 
stroke-linecap:round; stroke-linejoin:round;">
<text x="23.6100" y="6.1281"
textLength="4.0737" font-size="1.6933" lengthAdjust="spacingAndGlyphs"
text-anchor="start" opacity="0">GND</text>
<g class="stroked-text"><desc>GND</desc>
<path d="M24.6778 4.8631
L24.5568 4.8026
" />
<path d="M24.5568 4.8026
L24.3754 4.8026
" />
<path d="M24.3754 4.8026
L24.1940 4.8631
" />
<path d="M24.1940 4.8631
L24.0730 4.9841
" />
<path d="M24.0730 4.9841
L24.0125 5.1050
" />
<path d="M24.0125 5.1050
L23.9521 5.3469
" />
<path d="M23.9521 5.3469
L23.9521 5.5283
" />
<path d="M23.9521 5.5283
L24.0125 5.7702
" />
<path d="M24.0125 5.7702
L24.0730 5.8912
" />
<path d="M24.0730 5.8912
L24.1940 6.0122
" />
<path d="M24.1940 6.0122
L24.3754 6.0726
" />
<path d="M24.3754 6.0726
L24.4963 6.0726
" />
<path d="M24.4963 6.0726
L24.6778 6.0122
" />
<path d="M24.6778 6.0122
L24.7382 5.9517
" />
<path d="M24.7382 5.9517
L24.7382 5.5283
" />
<path d="M24.7382 5.5283
L24.4963 5.5283
" />
<path d="M25.2825 6.0726
L25.2825 4.8026
" />
<path d="M25.2825 4.8026
L26.0082 6.0726
" />
<path d="M26.0082 6.0726
L26.0082 4.8026
" />
<path d="M26.6130 6.0726
L26.6130 4.8026
" />
<path d="M26.6130 4.8026
L26.9154 4.8026
" />
<path d="M26.9154 4.8026
L27.0968 4.8631
" />
<path d="M27.0968 4.8631
L27.2178 4.9841
" />
<path d="M27.2178 4.9841
L27.2783 5.1050
" />
<path d="M27.2783 5.1050
L27.3387 5.3469
" />
<path d="M27.3387 5.3469
L27.3387 5.5283
" />
<path d="M27.3387 5.5283
L27.2783 5.7702
" />
<path d="M27.2783 5.7702
L27.2178 5.8912
" />
<path d="M27.2178 5.8912
L27.0968 6.0122
" />
<path d="M27.0968 6.0122
L26.9154 6.0726
" />
<path d="M26.9154 6.0726
L26.6130 6.0726
" />
</g></g>
<g style="fill:none; 
stroke:#A90000; stroke-width:0.1524; stroke-opacity:1; 
stroke-linecap:round; stroke-linejoin:round;">
<text x="21.1970" y="5.2391"
textLength="1.4127" font-size="1.6933" lengthAdjust="spacingAndGlyphs"
text-anchor="middle" opacity="0">1</text>
<g class="stroked-text"><desc>1</desc>
<path d="M21.5599 5.0756
L20.8342 5.0756
" />
<path d="M21.1970 5.0756
L21.1970 3.8056
" />
<path d="M21.1970 3.8056
L21.0761 3.9871
" />
<path d="M21.0761 3.9871
L20.9551 4.1080
" />
<path d="M20.9551 4.1080
L20.8342 4.1685
" />
</g></g>
<g style="fill:none; 
stroke:#006464; stroke-width:0.1588; stroke-opacity:1; 
stroke-linecap:round; stroke-linejoin:round;">
<text x="19.2920" y="3.0802"
textLength="3.7905" font-size="1.6933" lengthAdjust="spacingAndGlyphs"
text-anchor="middle" opacity="0">GS?</text>
<g class="stroked-text"><desc>GS?</desc>
<path d="M18.4756 1.8149
L18.3546 1.7544
" />
<path d="M18.3546 1.7544
L18.1732 1.7544
" />
<path d="M18.1732 1.7544
L17.9918 1.8149
" />
<path d="M17.9918 1.8149
L17.8708 1.9359
" />
<path d="M17.8708 1.9359
L17.8103 2.0568
" />
<path d="M17.8103 2.0568
L17.7499 2.2987
" />
<path d="M17.7499 2.2987
L17.7499 2.4801
" />
<path d="M17.7499 2.4801
L17.8103 2.7220
" />
<path d="M17.8103 2.7220
L17.8708 2.8430
" />
<path d="M17.8708 2.8430
L17.9918 2.9640
" />
<path d="M17.9918 2.9640
L18.1732 3.0244
" />
<path d="M18.1732 3.0244
L18.2941 3.0244
" />
<path d="M18.2941 3.0244
L18.4756 2.9640
" />
<path d="M18.4756 2.9640
L18.5360 2.9035
" />
<path d="M18.5360 2.9035
L18.5360 2.4801
" />
<path d="M18.5360 2.4801
L18.2941 2.4801
" />
<path d="M19.0199 2.9640
L19.2013 3.0244
" />
<path d="M19.2013 3.0244
L19.5037 3.0244
" />
<path d="M19.5037 3.0244
L19.6246 2.9640
" />
<path d="M19.6246 2.9640
L19.6851 2.9035
" />
<path d="M19.6851 2.9035
L19.7456 2.7825
" />
<path d="M19.7456 2.7825
L19.7456 2.6616
" />
<path d="M19.7456 2.6616
L19.6851 2.5406
" />
<path d="M19.6851 2.5406
L19.6246 2.4801
" />
<path d="M19.6246 2.4801
L19.5037 2.4197
" />
<path d="M19.5037 2.4197
L19.2618 2.3592
" />
<path d="M19.2618 2.3592
L19.1408 2.2987
" />
<path d="M19.1408 2.2987
L19.0803 2.2382
" />
<path d="M19.0803 2.2382
L19.0199 2.1173
" />
<path d="M19.0199 2.1173
L19.0199 1.9963
" />
<path d="M19.0199 1.9963
L19.0803 1.8754
" />
<path d="M19.0803 1.8754
L19.1408 1.8149
" />
<path d="M19.1408 1.8149
L19.2618 1.7544
" />
<path d="M19.2618 1.7544
L19.5641 1.7544
" />
<path d="M19.5641 1.7544
L19.7456 1.8149
" />
<path d="M20.4713 2.9035
L20.5317 2.9640
" />
<path d="M20.5317 2.9640
L20.4713 3.0244
" />
<path d="M20.4713 3.0244
L20.4108 2.9640
" />
<path d="M20.4108 2.9640
L20.4713 2.9035
" />
<path d="M20.4713 2.9035
L20.4713 3.0244
" />
<path d="M20.2294 1.8149
L20.3503 1.7544
" />
<path d="M20.3503 1.7544
L20.6527 1.7544
" />
<path d="M20.6527 1.7544
L20.7736 1.8149
" />
<path d="M20.7736 1.8149
L20.8341 1.9359
" />
<path d="M20.8341 1.9359
L20.8341 2.0568
" />
<path d="M20.8341 2.0568
L20.7736 2.1778
" />
<path d="M20.7736 2.1778
L20.7132 2.2382
" />
<path d="M20.7132 2.2382
L20.5922 2.2987
" />
<path d="M20.5922 2.2987
L20.5317 2.3592
" />
<path d="M20.5317 2.3592
L20.4713 2.4801
" />
<path d="M20.4713 2.4801
L20.4713 2.5406
" />
</g></g>
<g style="fill:none; 
stroke:#840084; stroke-width:0.1588; stroke-opacity:1; 
stroke-linecap:round; stroke-linejoin:round;">
<text x="19.2920" y="12.7322"
textLength="19.5747" font-size="1.6933" lengthAdjust="spacingAndGlyphs"
text-anchor="middle" opacity="0">Jacdac_Sockets:GND</text>
<g class="stroked-text"><desc>Jacdac_Sockets:GND</desc>
<path d="M10.2811 11.4064
L10.2811 12.3136
" />
<path d="M10.2811 12.3136
L10.2206 12.4950
" />
<path d="M10.2206 12.4950
L10.0997 12.6160
" />
<path d="M10.0997 12.6160
L9.9182 12.6764
" />
<path d="M9.9182 12.6764
L9.7973 12.6764
" />
<path d="M11.4301 12.6764
L11.4301 12.0112
" />
<path d="M11.4301 12.0112
L11.3696 11.8902
" />
<path d="M11.3696 11.8902
L11.2487 11.8298
" />
<path d="M11.2487 11.8298
L11.0068 11.8298
" />
<path d="M11.0068 11.8298
L10.8858 11.8902
" />
<path d="M11.4301 12.6160
L11.3092 12.6764
" />
<path d="M11.3092 12.6764
L11.0068 12.6764
" />
<path d="M11.0068 12.6764
L10.8858 12.6160
" />
<path d="M10.8858 12.6160
L10.8254 12.4950
" />
<path d="M10.8254 12.4950
L10.8254 12.3740
" />
<path d="M10.8254 12.3740
L10.8858 12.2531
" />
<path d="M10.8858 12.2531
L11.0068 12.1926
" />
<path d="M11.0068 12.1926
L11.3092 12.1926
" />
<path d="M11.3092 12.1926
L11.4301 12.1321
" />
<path d="M12.5791 12.6160
L12.4582 12.6764
" />
<path d="M12.4582 12.6764
L12.2163 12.6764
" />
<path d="M12.2163 12.6764
L12.0953 12.6160
" />
<path d="M12.0953 12.6160
L12.0348 12.5555
" />
<path d="M12.0348 12.5555
L11.9744 12.4345
" />
<path d="M11.9744 12.4345
L11.9744 12.0717
" />
<path d="M11.9744 12.0717
L12.0348 11.9507
" />
<path d="M12.0348 11.9507
L12.0953 11.8902
" />
<path d="M12.0953 11.8902
L12.2163 11.8298
" />
<path d="M12.2163 11.8298
L12.4582 11.8298
" />
<path d="M12.4582 11.8298
L12.5791 11.8902
" />
<path d="M13.6677 12.6764
L13.6677 11.4064
" />
<path d="M13.6677 12.6160
L13.5468 12.6764
" />
<path d="M13.5468 12.6764
L13.3049 12.6764
" />
<path d="M13.3049 12.6764
L13.1839 12.6160
" />
<path d="M13.1839 12.6160
L13.1234 12.5555
" />
<path d="M13.1234 12.5555
L13.0630 12.4345
" />
<path d="M13.0630 12.4345
L13.0630 12.0717
" />
<path d="M13.0630 12.0717
L13.1234 11.9507
" />
<path d="M13.1234 11.9507
L13.1839 11.8902
" />
<path d="M13.1839 11.8902
L13.3049 11.8298
" />
<path d="M13.3049 11.8298
L13.5468 11.8298
" />
<path d="M13.5468 11.8298
L13.6677 11.8902
" />
<path d="M14.8167 12.6764
L14.8167 12.0112
" />
<path d="M14.8167 12.0112
L14.7562 11.8902
" />
<path d="M14.7562 11.8902
L14.6353 11.8298
" />
<path d="M14.6353 11.8298
L14.3934 11.8298
" />
<path d="M14.3934 11.8298
L14.2724 11.8902
" />
<path d="M14.8167 12.6160
L14.6958 12.6764
" />
<path d="M14.6958 12.6764
L14.3934 12.6764
" />
<path d="M14.3934 12.6764
L14.2724 12.6160
" />
<path d="M14.2724 12.6160
L14.2120 12.4950
" />
<path d="M14.2120 12.4950
L14.2120 12.3740
" />
<path d="M14.2120 12.3740
L14.2724 12.2531
" />
<path d="M14.2724 12.2531
L14.3934 12.1926
" />
<path d="M14.3934 12.1926
L14.6958 12.1926
" />
<path d="M14.6958 12.1926
L14.8167 12.1321
" />
<path d="M15.9657 12.6160
L15.8448 12.6764
" />
<path d="M15.8448 12.6764
L15.6029 12.6764
" />
<path d="M15.6029 12.6764
L15.4819 12.6160
" />
<path d="M15.4819 12.6160
L15.4214 12.5555
" />
<path d="M15.4214 12.5555
L15.3610 12.4345
" />
<path d="M15.3610 12.4345
L15.3610 12.0717
" />
<path d="M15.3610 12.0717
L15.4214 11.9507
" />
<path d="M15.4214 11.9507
L15.4819 11.8902
" />
<path d="M15.4819 11.8902
L15.6029 11.8298
" />
<path d="M15.6029 11.8298
L15.8448 11.8298
" />
<path d="M15.8448 11.8298
L15.9657 11.8902
" />
<path d="M16.2077 12.7974
L17.1753 12.7974
" />
<path d="M17.4172 12.6160
L17.5986 12.6764
" />
<path d="M17.5986 12.6764
L17.9010 12.6764
" />
<path d="M17.9010 12.6764
L18.0219 12.6160
" />
<path d="M18.0219 12.6160
L18.0824 12.5555
" />
<path d="M18.0824 12.5555
L18.1429 12.4345
" />
<path d="M18.1429 12.4345
L18.1429 12.3136
" />
<path d="M18.1429 12.3136
L18.0824 12.1926
" />
<path d="M18.0824 12.1926
L18.0219 12.1321
" />
<path d="M18.0219 12.1321
L17.9010 12.0717
" />
<path d="M17.9010 12.0717
L17.6591 12.0112
" />
<path d="M17.6591 12.0112
L17.5381 11.9507
" />
<path d="M17.5381 11.9507
L17.4776 11.8902
" />
<path d="M17.4776 11.8902
L17.4172 11.7693
" />
<path d="M17.4172 11.7693
L17.4172 11.6483
" />
<path d="M17.4172 11.6483
L17.4776 11.5274
" />
<path d="M17.4776 11.5274
L17.5381 11.4669
" />
<path d="M17.5381 11.4669
L17.6591 11.4064
" />
<path d="M17.6591 11.4064
L17.9614 11.4064
" />
<path d="M17.9614 11.4064
L18.1429 11.4669
" />
<path d="M18.8686 12.6764
L18.7476 12.6160
" />
<path d="M18.7476 12.6160
L18.6871 12.5555
" />
<path d="M18.6871 12.5555
L18.6267 12.4345
" />
<path d="M18.6267 12.4345
L18.6267 12.0717
" />
<path d="M18.6267 12.0717
L18.6871 11.9507
" />
<path d="M18.6871 11.9507
L18.7476 11.8902
" />
<path d="M18.7476 11.8902
L18.8686 11.8298
" />
<path d="M18.8686 11.8298
L19.0500 11.8298
" />
<path d="M19.0500 11.8298
L19.1709 11.8902
" />
<path d="M19.1709 11.8902
L19.2314 11.9507
" />
<path d="M19.2314 11.9507
L19.2919 12.0717
" />
<path d="M19.2919 12.0717
L19.2919 12.4345
" />
<path d="M19.2919 12.4345
L19.2314 12.5555
" />
<path d="M19.2314 12.5555
L19.1709 12.6160
" />
<path d="M19.1709 12.6160
L19.0500 12.6764
" />
<path d="M19.0500 12.6764
L18.8686 12.6764
" />
<path d="M20.3804 12.6160
L20.2595 12.6764
" />
<path d="M20.2595 12.6764
L20.0176 12.6764
" />
<path d="M20.0176 12.6764
L19.8966 12.6160
" />
<path d="M19.8966 12.6160
L19.8361 12.5555
" />
<path d="M19.8361 12.5555
L19.7757 12.4345
" />
<path d="M19.7757 12.4345
L19.7757 12.0717
" />
<path d="M19.7757 12.0717
L19.8361 11.9507
" />
<path d="M19.8361 11.9507
L19.8966 11.8902
" />
<path d="M19.8966 11.8902
L20.0176 11.8298
" />
<path d="M20.0176 11.8298
L20.2595 11.8298
" />
<path d="M20.2595 11.8298
L20.3804 11.8902
" />
<path d="M20.9247 12.6764
L20.9247 11.4064
" />
<path d="M21.0457 12.1926
L21.4085 12.6764
" />
<path d="M21.4085 11.8298
L20.9247 12.3136
" />
<path d="M22.4366 12.6160
L22.3157 12.6764
" />
<path d="M22.3157 12.6764
L22.0738 12.6764
" />
<path d="M22.0738 12.6764
L21.9528 12.6160
" />
<path d="M21.9528 12.6160
L21.8924 12.4950
" />
<path d="M21.8924 12.4950
L21.8924 12.0112
" />
<path d="M21.8924 12.0112
L21.9528 11.8902
" />
<path d="M21.9528 11.8902
L22.0738 11.8298
" />
<path d="M22.0738 11.8298
L22.3157 11.8298
" />
<path d="M22.3157 11.8298
L22.4366 11.8902
" />
<path d="M22.4366 11.8902
L22.4971 12.0112
" />
<path d="M22.4971 12.0112
L22.4971 12.1321
" />
<path d="M22.4971 12.1321
L21.8924 12.2531
" />
<path d="M22.8600 11.8298
L23.3438 11.8298
" />
<path d="M23.0414 11.4064
L23.0414 12.4950
" />
<path d="M23.0414 12.4950
L23.1019 12.6160
" />
<path d="M23.1019 12.6160
L23.2229 12.6764
" />
<path d="M23.2229 12.6764
L23.3438 12.6764
" />
<path d="M23.7067 12.6160
L23.8276 12.6764
" />
<path d="M23.8276 12.6764
L24.0695 12.6764
" />
<path d="M24.0695 12.6764
L24.1905 12.6160
" />
<path d="M24.1905 12.6160
L24.2509 12.4950
" />
<path d="M24.2509 12.4950
L24.2509 12.4345
" />
<path d="M24.2509 12.4345
L24.1905 12.3136
" />
<path d="M24.1905 12.3136
L24.0695 12.2531
" />
<path d="M24.0695 12.2531
L23.8881 12.2531
" />
<path d="M23.8881 12.2531
L23.7671 12.1926
" />
<path d="M23.7671 12.1926
L23.7067 12.0717
" />
<path d="M23.7067 12.0717
L23.7067 12.0112
" />
<path d="M23.7067 12.0112
L23.7671 11.8902
" />
<path d="M23.7671 11.8902
L23.8881 11.8298
" />
<path d="M23.8881 11.8298
L24.0695 11.8298
" />
<path d="M24.0695 11.8298
L24.1905 11.8902
" />
<path d="M24.7952 12.5555
L24.8557 12.6160
" />
<path d="M24.8557 12.6160
L24.7952 12.6764
" />
<path d="M24.7952 12.6764
L24.7348 12.6160
" />
<path d="M24.7348 12.6160
L24.7952 12.5555
" />
<path d="M24.7952 12.5555
L24.7952 12.6764
" />
<path d="M24.7952 11.8902
L24.8557 11.9507
" />
<path d="M24.8557 11.9507
L24.7952 12.0112
" />
<path d="M24.7952 12.0112
L24.7348 11.9507
" />
<path d="M24.7348 11.9507
L24.7952 11.8902
" />
<path d="M24.7952 11.8902
L24.7952 12.0112
" />
<path d="M26.0653 11.4669
L25.9443 11.4064
" />
<path d="M25.9443 11.4064
L25.7629 11.4064
" />
<path d="M25.7629 11.4064
L25.5815 11.4669
" />
<path d="M25.5815 11.4669
L25.4605 11.5879
" />
<path d="M25.4605 11.5879
L25.4000 11.7088
" />
<path d="M25.4000 11.7088
L25.3396 11.9507
" />
<path d="M25.3396 11.9507
L25.3396 12.1321
" />
<path d="M25.3396 12.1321
L25.4000 12.3740
" />
<path d="M25.4000 12.3740
L25.4605 12.4950
" />
<path d="M25.4605 12.4950
L25.5815 12.6160
" />
<path d="M25.5815 12.6160
L25.7629 12.6764
" />
<path d="M25.7629 12.6764
L25.8838 12.6764
" />
<path d="M25.8838 12.6764
L26.0653 12.6160
" />
<path d="M26.0653 12.6160
L26.1257 12.5555
" />
<path d="M26.1257 12.5555
L26.1257 12.1321
" />
<path d="M26.1257 12.1321
L25.8838 12.1321
" />
<path d="M26.6700 12.6764
L26.6700 11.4064
" />
<path d="M26.6700 11.4064
L27.3957 12.6764
" />
<path d="M27.3957 12.6764
L27.3957 11.4064
" />
<path d="M28.0005 12.6764
L28.0005 11.4064
" />
<path d="M28.0005 11.4064
L28.3029 11.4064
" />
<path d="M28.3029 11.4064
L28.4843 11.4669
" />
<path d="M28.4843 11.4669
L28.6053 11.5879
" />
<path d="M28.6053 11.5879
L28.6658 11.7088
" />
<path d="M28.6658 11.7088
L28.7262 11.9507
" />
<path d="M28.7262 11.9507
L28.7262 12.1321
" />
<path d="M28.7262 12.1321
L28.6658 12.3740
" />
<path d="M28.6658 12.3740
L28.6053 12.4950
" />
<path d="M28.6053 12.4950
L28.4843 12.6160
" />
<path d="M28.4843 12.6160
L28.3029 12.6764
" />
<path d="M28.3029 12.6764
L28.0005 12.6764
" />
</g><text x="19.2920" y="15.2722"
textLength="32.1534" font-size="1.6933" lengthAdjust="spacingAndGlyphs"
text-anchor="middle" opacity="0">Gerber socket for Jacdac ground</text>
<g class="stroked-text"><desc>Gerber socket for Jacdac ground</desc>
<path d="M4.2941 14.0069
L4.1731 13.9464
" />
<path d="M4.1731 13.9464
L3.9917 13.9464
" />
<path d="M3.9917 13.9464
L3.8103 14.0069
" />
<path d="M3.8103 14.0069
L3.6893 14.1279
" />
<path d="M3.6893 14.1279
L3.6288 14.2488
" />
<path d="M3.6288 14.2488
L3.5684 14.4907
" />
<path d="M3.5684 14.4907
L3.5684 14.6721
" />
<path d="M3.5684 14.6721
L3.6288 14.9140
" />
<path d="M3.6288 14.9140
L3.6893 15.0350
" />
<path d="M3.6893 15.0350
L3.8103 15.1560
" />
<path d="M3.8103 15.1560
L3.9917 15.2164
" />
<path d="M3.9917 15.2164
L4.1126 15.2164
" />
<path d="M4.1126 15.2164
L4.2941 15.1560
" />
<path d="M4.2941 15.1560
L4.3545 15.0955
" />
<path d="M4.3545 15.0955
L4.3545 14.6721
" />
<path d="M4.3545 14.6721
L4.1126 14.6721
" />
<path d="M5.3826 15.1560
L5.2617 15.2164
" />
<path d="M5.2617 15.2164
L5.0198 15.2164
" />
<path d="M5.0198 15.2164
L4.8988 15.1560
" />
<path d="M4.8988 15.1560
L4.8384 15.0350
" />
<path d="M4.8384 15.0350
L4.8384 14.5512
" />
<path d="M4.8384 14.5512
L4.8988 14.4302
" />
<path d="M4.8988 14.4302
L5.0198 14.3698
" />
<path d="M5.0198 14.3698
L5.2617 14.3698
" />
<path d="M5.2617 14.3698
L5.3826 14.4302
" />
<path d="M5.3826 14.4302
L5.4431 14.5512
" />
<path d="M5.4431 14.5512
L5.4431 14.6721
" />
<path d="M5.4431 14.6721
L4.8384 14.7931
" />
<path d="M5.9874 15.2164
L5.9874 14.3698
" />
<path d="M5.9874 14.6117
L6.0479 14.4907
" />
<path d="M6.0479 14.4907
L6.1084 14.4302
" />
<path d="M6.1084 14.4302
L6.2293 14.3698
" />
<path d="M6.2293 14.3698
L6.3503 14.3698
" />
<path d="M6.7736 15.2164
L6.7736 13.9464
" />
<path d="M6.7736 14.4302
L6.8946 14.3698
" />
<path d="M6.8946 14.3698
L7.1365 14.3698
" />
<path d="M7.1365 14.3698
L7.2574 14.4302
" />
<path d="M7.2574 14.4302
L7.3179 14.4907
" />
<path d="M7.3179 14.4907
L7.3784 14.6117
" />
<path d="M7.3784 14.6117
L7.3784 14.9745
" />
<path d="M7.3784 14.9745
L7.3179 15.0955
" />
<path d="M7.3179 15.0955
L7.2574 15.1560
" />
<path d="M7.2574 15.1560
L7.1365 15.2164
" />
<path d="M7.1365 15.2164
L6.8946 15.2164
" />
<path d="M6.8946 15.2164
L6.7736 15.1560
" />
<path d="M8.4064 15.1560
L8.2855 15.2164
" />
<path d="M8.2855 15.2164
L8.0436 15.2164
" />
<path d="M8.0436 15.2164
L7.9226 15.1560
" />
<path d="M7.9226 15.1560
L7.8622 15.0350
" />
<path d="M7.8622 15.0350
L7.8622 14.5512
" />
<path d="M7.8622 14.5512
L7.9226 14.4302
" />
<path d="M7.9226 14.4302
L8.0436 14.3698
" />
<path d="M8.0436 14.3698
L8.2855 14.3698
" />
<path d="M8.2855 14.3698
L8.4064 14.4302
" />
<path d="M8.4064 14.4302
L8.4669 14.5512
" />
<path d="M8.4669 14.5512
L8.4669 14.6721
" />
<path d="M8.4669 14.6721
L7.8622 14.7931
" />
<path d="M9.0112 15.2164
L9.0112 14.3698
" />
<path d="M9.0112 14.6117
L9.0717 14.4907
" />
<path d="M9.0717 14.4907
L9.1322 14.4302
" />
<path d="M9.1322 14.4302
L9.2531 14.3698
" />
<path d="M9.2531 14.3698
L9.3741 14.3698
" />
<path d="M10.7046 15.1560
L10.8255 15.2164
" />
<path d="M10.8255 15.2164
L11.0674 15.2164
" />
<path d="M11.0674 15.2164
L11.1884 15.1560
" />
<path d="M11.1884 15.1560
L11.2488 15.0350
" />
<path d="M11.2488 15.0350
L11.2488 14.9745
" />
<path d="M11.2488 14.9745
L11.1884 14.8536
" />
<path d="M11.1884 14.8536
L11.0674 14.7931
" />
<path d="M11.0674 14.7931
L10.8860 14.7931
" />
<path d="M10.8860 14.7931
L10.7650 14.7326
" />
<path d="M10.7650 14.7326
L10.7046 14.6117
" />
<path d="M10.7046 14.6117
L10.7046 14.5512
" />
<path d="M10.7046 14.5512
L10.7650 14.4302
" />
<path d="M10.7650 14.4302
L10.8860 14.3698
" />
<path d="M10.8860 14.3698
L11.0674 14.3698
" />
<path d="M11.0674 14.3698
L11.1884 14.4302
" />
<path d="M11.9746 15.2164
L11.8536 15.1560
" />
<path d="M11.8536 15.1560
L11.7931 15.0955
" />
<path d="M11.7931 15.0955
L11.7327 14.9745
" />
<path d="M11.7327 14.9745
L11.7327 14.6117
" />
<path d="M11.7327 14.6117
L11.7931 14.4907
" />
<path d="M11.7931 14.4907
L11.8536 14.4302
" />
<path d="M11.8536 14.4302
L11.9746 14.3698
" />
<path d="M11.9746 14.3698
L12.1560 14.3698
" />
<path d="M12.1560 14.3698
L12.2769 14.4302
" />
<path d="M12.2769 14.4302
L12.3374 14.4907
" />
<path d="M12.3374 14.4907
L12.3979 14.6117
" />
<path d="M12.3979 14.6117
L12.3979 14.9745
" />
<path d="M12.3979 14.9745
L12.3374 15.0955
" />
<path d="M12.3374 15.0955
L12.2769 15.1560
" />
<path d="M12.2769 15.1560
L12.1560 15.2164
" />
<path d="M12.1560 15.2164
L11.9746 15.2164
" />
<path d="M13.4864 15.1560
L13.3655 15.2164
" />
<path d="M13.3655 15.2164
L13.1236 15.2164
" />
<path d="M13.1236 15.2164
L13.0026 15.1560
" />
<path d="M13.0026 15.1560
L12.9421 15.0955
" />
<path d="M12.9421 15.0955
L12.8817 14.9745
" />
<path d="M12.8817 14.9745
L12.8817 14.6117
" />
<path d="M12.8817 14.6117
L12.9421 14.4907
" />
<path d="M12.9421 14.4907
L13.0026 14.4302
" />
<path d="M13.0026 14.4302
L13.1236 14.3698
" />
<path d="M13.1236 14.3698
L13.3655 14.3698
" />
<path d="M13.3655 14.3698
L13.4864 14.4302
" />
<path d="M14.0307 15.2164
L14.0307 13.9464
" />
<path d="M14.1517 14.7326
L14.5145 15.2164
" />
<path d="M14.5145 14.3698
L14.0307 14.8536
" />
<path d="M15.5426 15.1560
L15.4217 15.2164
" />
<path d="M15.4217 15.2164
L15.1798 15.2164
" />
<path d="M15.1798 15.2164
L15.0588 15.1560
" />
<path d="M15.0588 15.1560
L14.9984 15.0350
" />
<path d="M14.9984 15.0350
L14.9984 14.5512
" />
<path d="M14.9984 14.5512
L15.0588 14.4302
" />
<path d="M15.0588 14.4302
L15.1798 14.3698
" />
<path d="M15.1798 14.3698
L15.4217 14.3698
" />
<path d="M15.4217 14.3698
L15.5426 14.4302
" />
<path d="M15.5426 14.4302
L15.6031 14.5512
" />
<path d="M15.6031 14.5512
L15.6031 14.6721
" />
<path d="M15.6031 14.6721
L14.9984 14.7931
" />
<path d="M15.9660 14.3698
L16.4498 14.3698
" />
<path d="M16.1474 13.9464
L16.1474 15.0350
" />
<path d="M16.1474 15.0350
L16.2079 15.1560
" />
<path d="M16.2079 15.1560
L16.3289 15.2164
" />
<path d="M16.3289 15.2164
L16.4498 15.2164
" />
<path d="M17.6593 14.3698
L18.1431 14.3698
" />
<path d="M17.8407 15.2164
L17.8407 14.1279
" />
<path d="M17.8407 14.1279
L17.9012 14.0069
" />
<path d="M17.9012 14.0069
L18.0222 13.9464
" />
<path d="M18.0222 13.9464
L18.1431 13.9464
" />
<path d="M18.7479 15.2164
L18.6269 15.1560
" />
<path d="M18.6269 15.1560
L18.5664 15.0955
" />
<path d="M18.5664 15.0955
L18.5060 14.9745
" />
<path d="M18.5060 14.9745
L18.5060 14.6117
" />
<path d="M18.5060 14.6117
L18.5664 14.4907
" />
<path d="M18.5664 14.4907
L18.6269 14.4302
" />
<path d="M18.6269 14.4302
L18.7479 14.3698
" />
<path d="M18.7479 14.3698
L18.9293 14.3698
" />
<path d="M18.9293 14.3698
L19.0502 14.4302
" />
<path d="M19.0502 14.4302
L19.1107 14.4907
" />
<path d="M19.1107 14.4907
L19.1712 14.6117
" />
<path d="M19.1712 14.6117
L19.1712 14.9745
" />
<path d="M19.1712 14.9745
L19.1107 15.0955
" />
<path d="M19.1107 15.0955
L19.0502 15.1560
" />
<path d="M19.0502 15.1560
L18.9293 15.2164
" />
<path d="M18.9293 15.2164
L18.7479 15.2164
" />
<path d="M19.7154 15.2164
L19.7154 14.3698
" />
<path d="M19.7154 14.6117
L19.7759 14.4907
" />
<path d="M19.7759 14.4907
L19.8364 14.4302
" />
<path d="M19.8364 14.4302
L19.9573 14.3698
" />
<path d="M19.9573 14.3698
L20.0783 14.3698
" />
<path d="M21.8321 13.9464
L21.8321 14.8536
" />
<path d="M21.8321 14.8536
L21.7716 15.0350
" />
<path d="M21.7716 15.0350
L21.6507 15.1560
" />
<path d="M21.6507 15.1560
L21.4692 15.2164
" />
<path d="M21.4692 15.2164
L21.3483 15.2164
" />
<path d="M22.9811 15.2164
L22.9811 14.5512
" />
<path d="M22.9811 14.5512
L22.9206 14.4302
" />
<path d="M22.9206 14.4302
L22.7997 14.3698
" />
<path d="M22.7997 14.3698
L22.5578 14.3698
" />
<path d="M22.5578 14.3698
L22.4368 14.4302
" />
<path d="M22.9811 15.1560
L22.8602 15.2164
" />
<path d="M22.8602 15.2164
L22.5578 15.2164
" />
<path d="M22.5578 15.2164
L22.4368 15.1560
" />
<path d="M22.4368 15.1560
L22.3764 15.0350
" />
<path d="M22.3764 15.0350
L22.3764 14.9140
" />
<path d="M22.3764 14.9140
L22.4368 14.7931
" />
<path d="M22.4368 14.7931
L22.5578 14.7326
" />
<path d="M22.5578 14.7326
L22.8602 14.7326
" />
<path d="M22.8602 14.7326
L22.9811 14.6721
" />
<path d="M24.1301 15.1560
L24.0092 15.2164
" />
<path d="M24.0092 15.2164
L23.7673 15.2164
" />
<path d="M23.7673 15.2164
L23.6463 15.1560
" />
<path d="M23.6463 15.1560
L23.5858 15.0955
" />
<path d="M23.5858 15.0955
L23.5254 14.9745
" />
<path d="M23.5254 14.9745
L23.5254 14.6117
" />
<path d="M23.5254 14.6117
L23.5858 14.4907
" />
<path d="M23.5858 14.4907
L23.6463 14.4302
" />
<path d="M23.6463 14.4302
L23.7673 14.3698
" />
<path d="M23.7673 14.3698
L24.0092 14.3698
" />
<path d="M24.0092 14.3698
L24.1301 14.4302
" />
<path d="M25.2187 15.2164
L25.2187 13.9464
" />
<path d="M25.2187 15.1560
L25.0978 15.2164
" />
<path d="M25.0978 15.2164
L24.8559 15.2164
" />
<path d="M24.8559 15.2164
L24.7349 15.1560
" />
<path d="M24.7349 15.1560
L24.6744 15.0955
" />
<path d="M24.6744 15.0955
L24.6140 14.9745
" />
<path d="M24.6140 14.9745
L24.6140 14.6117
" />
<path d="M24.6140 14.6117
L24.6744 14.4907
" />
<path d="M24.6744 14.4907
L24.7349 14.4302
" />
<path d="M24.7349 14.4302
L24.8559 14.3698
" />
<path d="M24.8559 14.3698
L25.0978 14.3698
" />
<path d="M25.0978 14.3698
L25.2187 14.4302
" />
<path d="M26.3677 15.2164
L26.3677 14.5512
" />
<path d="M26.3677 14.5512
L26.3072 14.4302
" />
<path d="M26.3072 14.4302
L26.1863 14.3698
" />
<path d="M26.1863 14.3698
L25.9444 14.3698
" />
<path d="M25.9444 14.3698
L25.8234 14.4302
" />
<path d="M26.3677 15.1560
L26.2468 15.2164
" />
<path d="M26.2468 15.2164
L25.9444 15.2164
" />
<path d="M25.9444 15.2164
L25.8234 15.1560
" />
<path d="M25.8234 15.1560
L25.7630 15.0350
" />
<path d="M25.7630 15.0350
L25.7630 14.9140
" />
<path d="M25.7630 14.9140
L25.8234 14.7931
" />
<path d="M25.8234 14.7931
L25.9444 14.7326
" />
<path d="M25.9444 14.7326
L26.2468 14.7326
" />
<path d="M26.2468 14.7326
L26.3677 14.6721
" />
<path d="M27.5167 15.1560
L27.3958 15.2164
" />
<path d="M27.3958 15.2164
L27.1539 15.2164
" />
<path d="M27.1539 15.2164
L27.0329 15.1560
" />
<path d="M27.0329 15.1560
L26.9724 15.0955
" />
<path d="M26.9724 15.0955
L26.9120 14.9745
" />
<path d="M26.9120 14.9745
L26.9120 14.6117
" />
<path d="M26.9120 14.6117
L26.9724 14.4907
" />
<path d="M26.9724 14.4907
L27.0329 14.4302
" />
<path d="M27.0329 14.4302
L27.1539 14.3698
" />
<path d="M27.1539 14.3698
L27.3958 14.3698
" />
<path d="M27.3958 14.3698
L27.5167 14.4302
" />
<path d="M29.5729 14.3698
L29.5729 15.3979
" />
<path d="M29.5729 15.3979
L29.5124 15.5188
" />
<path d="M29.5124 15.5188
L29.4520 15.5793
" />
<path d="M29.4520 15.5793
L29.3310 15.6398
" />
<path d="M29.3310 15.6398
L29.1496 15.6398
" />
<path d="M29.1496 15.6398
L29.0286 15.5793
" />
<path d="M29.5729 15.1560
L29.4520 15.2164
" />
<path d="M29.4520 15.2164
L29.2101 15.2164
" />
<path d="M29.2101 15.2164
L29.0891 15.1560
" />
<path d="M29.0891 15.1560
L29.0286 15.0955
" />
<path d="M29.0286 15.0955
L28.9682 14.9745
" />
<path d="M28.9682 14.9745
L28.9682 14.6117
" />
<path d="M28.9682 14.6117
L29.0286 14.4907
" />
<path d="M29.0286 14.4907
L29.0891 14.4302
" />
<path d="M29.0891 14.4302
L29.2101 14.3698
" />
<path d="M29.2101 14.3698
L29.4520 14.3698
" />
<path d="M29.4520 14.3698
L29.5729 14.4302
" />
<path d="M30.1776 15.2164
L30.1776 14.3698
" />
<path d="M30.1776 14.6117
L30.2381 14.4907
" />
<path d="M30.2381 14.4907
L30.2986 14.4302
" />
<path d="M30.2986 14.4302
L30.4195 14.3698
" />
<path d="M30.4195 14.3698
L30.5405 14.3698
" />
<path d="M31.1453 15.2164
L31.0243 15.1560
" />
<path d="M31.0243 15.1560
L30.9638 15.0955
" />
<path d="M30.9638 15.0955
L30.9034 14.9745
" />
<path d="M30.9034 14.9745
L30.9034 14.6117
" />
<path d="M30.9034 14.6117
L30.9638 14.4907
" />
<path d="M30.9638 14.4907
L31.0243 14.4302
" />
<path d="M31.0243 14.4302
L31.1453 14.3698
" />
<path d="M31.1453 14.3698
L31.3267 14.3698
" />
<path d="M31.3267 14.3698
L31.4476 14.4302
" />
<path d="M31.4476 14.4302
L31.5081 14.4907
" />
<path d="M31.5081 14.4907
L31.5686 14.6117
" />
<path d="M31.5686 14.6117
L31.5686 14.9745
" />
<path d="M31.5686 14.9745
L31.5081 15.0955
" />
<path d="M31.5081 15.0955
L31.4476 15.1560
" />
<path d="M31.4476 15.1560
L31.3267 15.2164
" />
<path d="M31.3267 15.2164
L31.1453 15.2164
" />
<path d="M32.6571 14.3698
L32.6571 15.2164
" />
<path d="M32.1128 14.3698
L32.1128 15.0350
" />
<path d="M32.1128 15.0350
L32.1733 15.1560
" />
<path d="M32.1733 15.1560
L32.2943 15.2164
" />
<path d="M32.2943 15.2164
L32.4757 15.2164
" />
<path d="M32.4757 15.2164
L32.5966 15.1560
" />
<path d="M32.5966 15.1560
L32.6571 15.0955
" />
<path d="M33.2618 14.3698
L33.2618 15.2164
" />
<path d="M33.2618 14.4907
L33.3223 14.4302
" />
<path d="M33.3223 14.4302
L33.4433 14.3698
" />
<path d="M33.4433 14.3698
L33.6247 14.3698
" />
<path d="M33.6247 14.3698
L33.7456 14.4302
" />
<path d="M33.7456 14.4302
L33.8061 14.5512
" />
<path d="M33.8061 14.5512
L33.8061 15.2164
" />
<path d="M34.9551 15.2164
L34.9551 13.9464
" />
<path d="M34.9551 15.1560
L34.8342 15.2164
" />
<path d="M34.8342 15.2164
L34.5923 15.2164
" />
<path d="M34.5923 15.2164
L34.4713 15.1560
" />
<path d="M34.4713 15.1560
L34.4108 15.0955
" />
<path d="M34.4108 15.0955
L34.3504 14.9745
" />
<path d="M34.3504 14.9745
L34.3504 14.6117
" />
<path d="M34.3504 14.6117
L34.4108 14.4907
" />
<path d="M34.4108 14.4907
L34.4713 14.4302
" />
<path d="M34.4713 14.4302
L34.5923 14.3698
" />
<path d="M34.5923 14.3698
L34.8342 14.3698
" />
<path d="M34.8342 14.3698
L34.9551 14.4302
" />
</g></g> 
</svg>
