<?xml version="1.0" standalone="no"?>
 <!DOCTYPE svg PUBLIC "-//W3C//DTD SVG 1.1//EN" 
 "http://www.w3.org/Graphics/SVG/1.1/DTD/svg11.dtd"> 
<svg
  xmlns:svg="http://www.w3.org/2000/svg"
  xmlns="http://www.w3.org/2000/svg"
  xmlns:xlink="http://www.w3.org/1999/xlink"
  version="1.1"
  width="40.8940mm" height="16.7894mm" viewBox="0.0000 0.0000 40.8940 16.7894">
<title>SVG Image created as JD_DATA_symbol.svg date 2024/09/04 17:43:52 </title>
  <desc>Image generated by Eeschema-SVG </desc>
<g style="fill:#000000; fill-opacity:1.0000;stroke:#000000; stroke-opacity:1.0000;
stroke-linecap:round; stroke-linejoin:round;"
 transform="translate(0 0) scale(1 1)">
</g>
<g style="fill:none; 
stroke:#840000; stroke-width:0.1524; stroke-opacity:1; 
stroke-linecap:round; stroke-linejoin:round;">
<path d="M26.8031 2.9277 A2.5404 2.5404 0.0 1 0 26.8031 8.0083" />
</g>
<g style="fill:none; 
stroke:#840000; stroke-width:0.1588; stroke-opacity:1; 
stroke-linecap:round; stroke-linejoin:round;">
<text x="20.4531" y="10.1668"
textLength="26.1664" font-size="1.6933" lengthAdjust="spacingAndGlyphs"
text-anchor="middle" opacity="0">Jacdac data Gerber socket</text>
<g class="stroked-text"><desc>Jacdac data Gerber socket</desc>
<path d="M8.1463 8.8410
L8.1463 9.7482
" />
<path d="M8.1463 9.7482
L8.0858 9.9296
" />
<path d="M8.0858 9.9296
L7.9649 10.0506
" />
<path d="M7.9649 10.0506
L7.7834 10.1110
" />
<path d="M7.7834 10.1110
L7.6625 10.1110
" />
<path d="M9.2953 10.1110
L9.2953 9.4458
" />
<path d="M9.2953 9.4458
L9.2348 9.3248
" />
<path d="M9.2348 9.3248
L9.1139 9.2644
" />
<path d="M9.1139 9.2644
L8.8720 9.2644
" />
<path d="M8.8720 9.2644
L8.7510 9.3248
" />
<path d="M9.2953 10.0506
L9.1744 10.1110
" />
<path d="M9.1744 10.1110
L8.8720 10.1110
" />
<path d="M8.8720 10.1110
L8.7510 10.0506
" />
<path d="M8.7510 10.0506
L8.6906 9.9296
" />
<path d="M8.6906 9.9296
L8.6906 9.8086
" />
<path d="M8.6906 9.8086
L8.7510 9.6877
" />
<path d="M8.7510 9.6877
L8.8720 9.6272
" />
<path d="M8.8720 9.6272
L9.1744 9.6272
" />
<path d="M9.1744 9.6272
L9.2953 9.5667
" />
<path d="M10.4443 10.0506
L10.3234 10.1110
" />
<path d="M10.3234 10.1110
L10.0815 10.1110
" />
<path d="M10.0815 10.1110
L9.9605 10.0506
" />
<path d="M9.9605 10.0506
L9.9000 9.9901
" />
<path d="M9.9000 9.9901
L9.8396 9.8691
" />
<path d="M9.8396 9.8691
L9.8396 9.5063
" />
<path d="M9.8396 9.5063
L9.9000 9.3853
" />
<path d="M9.9000 9.3853
L9.9605 9.3248
" />
<path d="M9.9605 9.3248
L10.0815 9.2644
" />
<path d="M10.0815 9.2644
L10.3234 9.2644
" />
<path d="M10.3234 9.2644
L10.4443 9.3248
" />
<path d="M11.5329 10.1110
L11.5329 8.8410
" />
<path d="M11.5329 10.0506
L11.4120 10.1110
" />
<path d="M11.4120 10.1110
L11.1701 10.1110
" />
<path d="M11.1701 10.1110
L11.0491 10.0506
" />
<path d="M11.0491 10.0506
L10.9886 9.9901
" />
<path d="M10.9886 9.9901
L10.9282 9.8691
" />
<path d="M10.9282 9.8691
L10.9282 9.5063
" />
<path d="M10.9282 9.5063
L10.9886 9.3853
" />
<path d="M10.9886 9.3853
L11.0491 9.3248
" />
<path d="M11.0491 9.3248
L11.1701 9.2644
" />
<path d="M11.1701 9.2644
L11.4120 9.2644
" />
<path d="M11.4120 9.2644
L11.5329 9.3248
" />
<path d="M12.6819 10.1110
L12.6819 9.4458
" />
<path d="M12.6819 9.4458
L12.6214 9.3248
" />
<path d="M12.6214 9.3248
L12.5005 9.2644
" />
<path d="M12.5005 9.2644
L12.2586 9.2644
" />
<path d="M12.2586 9.2644
L12.1376 9.3248
" />
<path d="M12.6819 10.0506
L12.5610 10.1110
" />
<path d="M12.5610 10.1110
L12.2586 10.1110
" />
<path d="M12.2586 10.1110
L12.1376 10.0506
" />
<path d="M12.1376 10.0506
L12.0772 9.9296
" />
<path d="M12.0772 9.9296
L12.0772 9.8086
" />
<path d="M12.0772 9.8086
L12.1376 9.6877
" />
<path d="M12.1376 9.6877
L12.2586 9.6272
" />
<path d="M12.2586 9.6272
L12.5610 9.6272
" />
<path d="M12.5610 9.6272
L12.6819 9.5667
" />
<path d="M13.8309 10.0506
L13.7100 10.1110
" />
<path d="M13.7100 10.1110
L13.4681 10.1110
" />
<path d="M13.4681 10.1110
L13.3471 10.0506
" />
<path d="M13.3471 10.0506
L13.2866 9.9901
" />
<path d="M13.2866 9.9901
L13.2262 9.8691
" />
<path d="M13.2262 9.8691
L13.2262 9.5063
" />
<path d="M13.2262 9.5063
L13.2866 9.3853
" />
<path d="M13.2866 9.3853
L13.3471 9.3248
" />
<path d="M13.3471 9.3248
L13.4681 9.2644
" />
<path d="M13.4681 9.2644
L13.7100 9.2644
" />
<path d="M13.7100 9.2644
L13.8309 9.3248
" />
<path d="M15.8871 10.1110
L15.8871 8.8410
" />
<path d="M15.8871 10.0506
L15.7662 10.1110
" />
<path d="M15.7662 10.1110
L15.5243 10.1110
" />
<path d="M15.5243 10.1110
L15.4033 10.0506
" />
<path d="M15.4033 10.0506
L15.3428 9.9901
" />
<path d="M15.3428 9.9901
L15.2824 9.8691
" />
<path d="M15.2824 9.8691
L15.2824 9.5063
" />
<path d="M15.2824 9.5063
L15.3428 9.3853
" />
<path d="M15.3428 9.3853
L15.4033 9.3248
" />
<path d="M15.4033 9.3248
L15.5243 9.2644
" />
<path d="M15.5243 9.2644
L15.7662 9.2644
" />
<path d="M15.7662 9.2644
L15.8871 9.3248
" />
<path d="M17.0361 10.1110
L17.0361 9.4458
" />
<path d="M17.0361 9.4458
L16.9756 9.3248
" />
<path d="M16.9756 9.3248
L16.8547 9.2644
" />
<path d="M16.8547 9.2644
L16.6128 9.2644
" />
<path d="M16.6128 9.2644
L16.4918 9.3248
" />
<path d="M17.0361 10.0506
L16.9152 10.1110
" />
<path d="M16.9152 10.1110
L16.6128 10.1110
" />
<path d="M16.6128 10.1110
L16.4918 10.0506
" />
<path d="M16.4918 10.0506
L16.4314 9.9296
" />
<path d="M16.4314 9.9296
L16.4314 9.8086
" />
<path d="M16.4314 9.8086
L16.4918 9.6877
" />
<path d="M16.4918 9.6877
L16.6128 9.6272
" />
<path d="M16.6128 9.6272
L16.9152 9.6272
" />
<path d="M16.9152 9.6272
L17.0361 9.5667
" />
<path d="M17.4594 9.2644
L17.9432 9.2644
" />
<path d="M17.6408 8.8410
L17.6408 9.9296
" />
<path d="M17.6408 9.9296
L17.7013 10.0506
" />
<path d="M17.7013 10.0506
L17.8223 10.1110
" />
<path d="M17.8223 10.1110
L17.9432 10.1110
" />
<path d="M18.9108 10.1110
L18.9108 9.4458
" />
<path d="M18.9108 9.4458
L18.8503 9.3248
" />
<path d="M18.8503 9.3248
L18.7294 9.2644
" />
<path d="M18.7294 9.2644
L18.4875 9.2644
" />
<path d="M18.4875 9.2644
L18.3665 9.3248
" />
<path d="M18.9108 10.0506
L18.7899 10.1110
" />
<path d="M18.7899 10.1110
L18.4875 10.1110
" />
<path d="M18.4875 10.1110
L18.3665 10.0506
" />
<path d="M18.3665 10.0506
L18.3061 9.9296
" />
<path d="M18.3061 9.9296
L18.3061 9.8086
" />
<path d="M18.3061 9.8086
L18.3665 9.6877
" />
<path d="M18.3665 9.6877
L18.4875 9.6272
" />
<path d="M18.4875 9.6272
L18.7899 9.6272
" />
<path d="M18.7899 9.6272
L18.9108 9.5667
" />
<path d="M21.1484 8.9015
L21.0274 8.8410
" />
<path d="M21.0274 8.8410
L20.8460 8.8410
" />
<path d="M20.8460 8.8410
L20.6646 8.9015
" />
<path d="M20.6646 8.9015
L20.5436 9.0225
" />
<path d="M20.5436 9.0225
L20.4831 9.1434
" />
<path d="M20.4831 9.1434
L20.4227 9.3853
" />
<path d="M20.4227 9.3853
L20.4227 9.5667
" />
<path d="M20.4227 9.5667
L20.4831 9.8086
" />
<path d="M20.4831 9.8086
L20.5436 9.9296
" />
<path d="M20.5436 9.9296
L20.6646 10.0506
" />
<path d="M20.6646 10.0506
L20.8460 10.1110
" />
<path d="M20.8460 10.1110
L20.9669 10.1110
" />
<path d="M20.9669 10.1110
L21.1484 10.0506
" />
<path d="M21.1484 10.0506
L21.2088 9.9901
" />
<path d="M21.2088 9.9901
L21.2088 9.5667
" />
<path d="M21.2088 9.5667
L20.9669 9.5667
" />
<path d="M22.2369 10.0506
L22.1160 10.1110
" />
<path d="M22.1160 10.1110
L21.8741 10.1110
" />
<path d="M21.8741 10.1110
L21.7531 10.0506
" />
<path d="M21.7531 10.0506
L21.6927 9.9296
" />
<path d="M21.6927 9.9296
L21.6927 9.4458
" />
<path d="M21.6927 9.4458
L21.7531 9.3248
" />
<path d="M21.7531 9.3248
L21.8741 9.2644
" />
<path d="M21.8741 9.2644
L22.1160 9.2644
" />
<path d="M22.1160 9.2644
L22.2369 9.3248
" />
<path d="M22.2369 9.3248
L22.2974 9.4458
" />
<path d="M22.2974 9.4458
L22.2974 9.5667
" />
<path d="M22.2974 9.5667
L21.6927 9.6877
" />
<path d="M22.8417 10.1110
L22.8417 9.2644
" />
<path d="M22.8417 9.5063
L22.9022 9.3853
" />
<path d="M22.9022 9.3853
L22.9627 9.3248
" />
<path d="M22.9627 9.3248
L23.0836 9.2644
" />
<path d="M23.0836 9.2644
L23.2046 9.2644
" />
<path d="M23.6279 10.1110
L23.6279 8.8410
" />
<path d="M23.6279 9.3248
L23.7489 9.2644
" />
<path d="M23.7489 9.2644
L23.9908 9.2644
" />
<path d="M23.9908 9.2644
L24.1117 9.3248
" />
<path d="M24.1117 9.3248
L24.1722 9.3853
" />
<path d="M24.1722 9.3853
L24.2327 9.5063
" />
<path d="M24.2327 9.5063
L24.2327 9.8691
" />
<path d="M24.2327 9.8691
L24.1722 9.9901
" />
<path d="M24.1722 9.9901
L24.1117 10.0506
" />
<path d="M24.1117 10.0506
L23.9908 10.1110
" />
<path d="M23.9908 10.1110
L23.7489 10.1110
" />
<path d="M23.7489 10.1110
L23.6279 10.0506
" />
<path d="M25.2607 10.0506
L25.1398 10.1110
" />
<path d="M25.1398 10.1110
L24.8979 10.1110
" />
<path d="M24.8979 10.1110
L24.7769 10.0506
" />
<path d="M24.7769 10.0506
L24.7165 9.9296
" />
<path d="M24.7165 9.9296
L24.7165 9.4458
" />
<path d="M24.7165 9.4458
L24.7769 9.3248
" />
<path d="M24.7769 9.3248
L24.8979 9.2644
" />
<path d="M24.8979 9.2644
L25.1398 9.2644
" />
<path d="M25.1398 9.2644
L25.2607 9.3248
" />
<path d="M25.2607 9.3248
L25.3212 9.4458
" />
<path d="M25.3212 9.4458
L25.3212 9.5667
" />
<path d="M25.3212 9.5667
L24.7165 9.6877
" />
<path d="M25.8655 10.1110
L25.8655 9.2644
" />
<path d="M25.8655 9.5063
L25.9260 9.3853
" />
<path d="M25.9260 9.3853
L25.9865 9.3248
" />
<path d="M25.9865 9.3248
L26.1074 9.2644
" />
<path d="M26.1074 9.2644
L26.2284 9.2644
" />
<path d="M27.5589 10.0506
L27.6798 10.1110
" />
<path d="M27.6798 10.1110
L27.9217 10.1110
" />
<path d="M27.9217 10.1110
L28.0427 10.0506
" />
<path d="M28.0427 10.0506
L28.1031 9.9296
" />
<path d="M28.1031 9.9296
L28.1031 9.8691
" />
<path d="M28.1031 9.8691
L28.0427 9.7482
" />
<path d="M28.0427 9.7482
L27.9217 9.6877
" />
<path d="M27.9217 9.6877
L27.7403 9.6877
" />
<path d="M27.7403 9.6877
L27.6193 9.6272
" />
<path d="M27.6193 9.6272
L27.5589 9.5063
" />
<path d="M27.5589 9.5063
L27.5589 9.4458
" />
<path d="M27.5589 9.4458
L27.6193 9.3248
" />
<path d="M27.6193 9.3248
L27.7403 9.2644
" />
<path d="M27.7403 9.2644
L27.9217 9.2644
" />
<path d="M27.9217 9.2644
L28.0427 9.3248
" />
<path d="M28.8289 10.1110
L28.7079 10.0506
" />
<path d="M28.7079 10.0506
L28.6474 9.9901
" />
<path d="M28.6474 9.9901
L28.5870 9.8691
" />
<path d="M28.5870 9.8691
L28.5870 9.5063
" />
<path d="M28.5870 9.5063
L28.6474 9.3853
" />
<path d="M28.6474 9.3853
L28.7079 9.3248
" />
<path d="M28.7079 9.3248
L28.8289 9.2644
" />
<path d="M28.8289 9.2644
L29.0103 9.2644
" />
<path d="M29.0103 9.2644
L29.1312 9.3248
" />
<path d="M29.1312 9.3248
L29.1917 9.3853
" />
<path d="M29.1917 9.3853
L29.2522 9.5063
" />
<path d="M29.2522 9.5063
L29.2522 9.8691
" />
<path d="M29.2522 9.8691
L29.1917 9.9901
" />
<path d="M29.1917 9.9901
L29.1312 10.0506
" />
<path d="M29.1312 10.0506
L29.0103 10.1110
" />
<path d="M29.0103 10.1110
L28.8289 10.1110
" />
<path d="M30.3407 10.0506
L30.2198 10.1110
" />
<path d="M30.2198 10.1110
L29.9779 10.1110
" />
<path d="M29.9779 10.1110
L29.8569 10.0506
" />
<path d="M29.8569 10.0506
L29.7964 9.9901
" />
<path d="M29.7964 9.9901
L29.7360 9.8691
" />
<path d="M29.7360 9.8691
L29.7360 9.5063
" />
<path d="M29.7360 9.5063
L29.7964 9.3853
" />
<path d="M29.7964 9.3853
L29.8569 9.3248
" />
<path d="M29.8569 9.3248
L29.9779 9.2644
" />
<path d="M29.9779 9.2644
L30.2198 9.2644
" />
<path d="M30.2198 9.2644
L30.3407 9.3248
" />
<path d="M30.8850 10.1110
L30.8850 8.8410
" />
<path d="M31.0060 9.6272
L31.3688 10.1110
" />
<path d="M31.3688 9.2644
L30.8850 9.7482
" />
<path d="M32.3969 10.0506
L32.2760 10.1110
" />
<path d="M32.2760 10.1110
L32.0341 10.1110
" />
<path d="M32.0341 10.1110
L31.9131 10.0506
" />
<path d="M31.9131 10.0506
L31.8527 9.9296
" />
<path d="M31.8527 9.9296
L31.8527 9.4458
" />
<path d="M31.8527 9.4458
L31.9131 9.3248
" />
<path d="M31.9131 9.3248
L32.0341 9.2644
" />
<path d="M32.0341 9.2644
L32.2760 9.2644
" />
<path d="M32.2760 9.2644
L32.3969 9.3248
" />
<path d="M32.3969 9.3248
L32.4574 9.4458
" />
<path d="M32.4574 9.4458
L32.4574 9.5667
" />
<path d="M32.4574 9.5667
L31.8527 9.6877
" />
<path d="M32.8203 9.2644
L33.3041 9.2644
" />
<path d="M33.0017 8.8410
L33.0017 9.9296
" />
<path d="M33.0017 9.9296
L33.0622 10.0506
" />
<path d="M33.0622 10.0506
L33.1832 10.1110
" />
<path d="M33.1832 10.1110
L33.3041 10.1110
" />
</g></g>
<g style="fill:none; 
stroke:#840000; stroke-width:0.1524; stroke-opacity:1; 
stroke-linecap:round; stroke-linejoin:round;">
<path d="M24.2631 5.4677
L20.4531 5.4677
" />
</g>
<g style="fill:none; 
stroke:#006464; stroke-width:0.1524; stroke-opacity:1; 
stroke-linecap:round; stroke-linejoin:round;">
<text x="24.7711" y="6.1027"
textLength="7.8232" font-size="1.6933" lengthAdjust="spacingAndGlyphs"
text-anchor="start" opacity="0">JD_DATA</text>
<g class="stroked-text"><desc>JD_DATA</desc>
<path d="M25.5365 4.7772
L25.5365 5.6844
" />
<path d="M25.5365 5.6844
L25.4760 5.8658
" />
<path d="M25.4760 5.8658
L25.3551 5.9868
" />
<path d="M25.3551 5.9868
L25.1736 6.0472
" />
<path d="M25.1736 6.0472
L25.0527 6.0472
" />
<path d="M26.1412 6.0472
L26.1412 4.7772
" />
<path d="M26.1412 4.7772
L26.4436 4.7772
" />
<path d="M26.4436 4.7772
L26.6250 4.8377
" />
<path d="M26.6250 4.8377
L26.7460 4.9587
" />
<path d="M26.7460 4.9587
L26.8065 5.0796
" />
<path d="M26.8065 5.0796
L26.8669 5.3215
" />
<path d="M26.8669 5.3215
L26.8669 5.5029
" />
<path d="M26.8669 5.5029
L26.8065 5.7448
" />
<path d="M26.8065 5.7448
L26.7460 5.8658
" />
<path d="M26.7460 5.8658
L26.6250 5.9868
" />
<path d="M26.6250 5.9868
L26.4436 6.0472
" />
<path d="M26.4436 6.0472
L26.1412 6.0472
" />
<path d="M27.1089 6.1682
L28.0765 6.1682
" />
<path d="M28.3788 6.0472
L28.3788 4.7772
" />
<path d="M28.3788 4.7772
L28.6812 4.7772
" />
<path d="M28.6812 4.7772
L28.8626 4.8377
" />
<path d="M28.8626 4.8377
L28.9836 4.9587
" />
<path d="M28.9836 4.9587
L29.0441 5.0796
" />
<path d="M29.0441 5.0796
L29.1045 5.3215
" />
<path d="M29.1045 5.3215
L29.1045 5.5029
" />
<path d="M29.1045 5.5029
L29.0441 5.7448
" />
<path d="M29.0441 5.7448
L28.9836 5.8658
" />
<path d="M28.9836 5.8658
L28.8626 5.9868
" />
<path d="M28.8626 5.9868
L28.6812 6.0472
" />
<path d="M28.6812 6.0472
L28.3788 6.0472
" />
<path d="M29.5884 5.6844
L30.1931 5.6844
" />
<path d="M29.4674 6.0472
L29.8907 4.7772
" />
<path d="M29.8907 4.7772
L30.3141 6.0472
" />
<path d="M30.5560 4.7772
L31.2817 4.7772
" />
<path d="M30.9189 6.0472
L30.9189 4.7772
" />
<path d="M31.6446 5.6844
L32.2493 5.6844
" />
<path d="M31.5236 6.0472
L31.9469 4.7772
" />
<path d="M31.9469 4.7772
L32.3703 6.0472
" />
</g></g>
<g style="fill:none; 
stroke:#A90000; stroke-width:0.1524; stroke-opacity:1; 
stroke-linecap:round; stroke-linejoin:round;">
<text x="22.3581" y="5.2137"
textLength="1.4127" font-size="1.6933" lengthAdjust="spacingAndGlyphs"
text-anchor="middle" opacity="0">1</text>
<g class="stroked-text"><desc>1</desc>
<path d="M22.7210 5.0502
L21.9953 5.0502
" />
<path d="M22.3581 5.0502
L22.3581 3.7802
" />
<path d="M22.3581 3.7802
L22.2372 3.9617
" />
<path d="M22.2372 3.9617
L22.1162 4.0826
" />
<path d="M22.1162 4.0826
L21.9953 4.1431
" />
</g></g>
<g style="fill:none; 
stroke:#006464; stroke-width:0.1588; stroke-opacity:1; 
stroke-linecap:round; stroke-linejoin:round;">
<text x="20.4531" y="3.0548"
textLength="3.7905" font-size="1.6933" lengthAdjust="spacingAndGlyphs"
text-anchor="middle" opacity="0">GS?</text>
<g class="stroked-text"><desc>GS?</desc>
<path d="M19.6367 1.7895
L19.5157 1.7290
" />
<path d="M19.5157 1.7290
L19.3343 1.7290
" />
<path d="M19.3343 1.7290
L19.1529 1.7895
" />
<path d="M19.1529 1.7895
L19.0319 1.9105
" />
<path d="M19.0319 1.9105
L18.9714 2.0314
" />
<path d="M18.9714 2.0314
L18.9110 2.2733
" />
<path d="M18.9110 2.2733
L18.9110 2.4547
" />
<path d="M18.9110 2.4547
L18.9714 2.6966
" />
<path d="M18.9714 2.6966
L19.0319 2.8176
" />
<path d="M19.0319 2.8176
L19.1529 2.9386
" />
<path d="M19.1529 2.9386
L19.3343 2.9990
" />
<path d="M19.3343 2.9990
L19.4552 2.9990
" />
<path d="M19.4552 2.9990
L19.6367 2.9386
" />
<path d="M19.6367 2.9386
L19.6971 2.8781
" />
<path d="M19.6971 2.8781
L19.6971 2.4547
" />
<path d="M19.6971 2.4547
L19.4552 2.4547
" />
<path d="M20.1810 2.9386
L20.3624 2.9990
" />
<path d="M20.3624 2.9990
L20.6648 2.9990
" />
<path d="M20.6648 2.9990
L20.7857 2.9386
" />
<path d="M20.7857 2.9386
L20.8462 2.8781
" />
<path d="M20.8462 2.8781
L20.9067 2.7571
" />
<path d="M20.9067 2.7571
L20.9067 2.6362
" />
<path d="M20.9067 2.6362
L20.8462 2.5152
" />
<path d="M20.8462 2.5152
L20.7857 2.4547
" />
<path d="M20.7857 2.4547
L20.6648 2.3943
" />
<path d="M20.6648 2.3943
L20.4229 2.3338
" />
<path d="M20.4229 2.3338
L20.3019 2.2733
" />
<path d="M20.3019 2.2733
L20.2414 2.2128
" />
<path d="M20.2414 2.2128
L20.1810 2.0919
" />
<path d="M20.1810 2.0919
L20.1810 1.9709
" />
<path d="M20.1810 1.9709
L20.2414 1.8500
" />
<path d="M20.2414 1.8500
L20.3019 1.7895
" />
<path d="M20.3019 1.7895
L20.4229 1.7290
" />
<path d="M20.4229 1.7290
L20.7252 1.7290
" />
<path d="M20.7252 1.7290
L20.9067 1.7895
" />
<path d="M21.6324 2.8781
L21.6928 2.9386
" />
<path d="M21.6928 2.9386
L21.6324 2.9990
" />
<path d="M21.6324 2.9990
L21.5719 2.9386
" />
<path d="M21.5719 2.9386
L21.6324 2.8781
" />
<path d="M21.6324 2.8781
L21.6324 2.9990
" />
<path d="M21.3905 1.7895
L21.5114 1.7290
" />
<path d="M21.5114 1.7290
L21.8138 1.7290
" />
<path d="M21.8138 1.7290
L21.9347 1.7895
" />
<path d="M21.9347 1.7895
L21.9952 1.9105
" />
<path d="M21.9952 1.9105
L21.9952 2.0314
" />
<path d="M21.9952 2.0314
L21.9347 2.1524
" />
<path d="M21.9347 2.1524
L21.8743 2.2128
" />
<path d="M21.8743 2.2128
L21.7533 2.2733
" />
<path d="M21.7533 2.2733
L21.6928 2.3338
" />
<path d="M21.6928 2.3338
L21.6324 2.4547
" />
<path d="M21.6324 2.4547
L21.6324 2.5152
" />
</g></g>
<g style="fill:none; 
stroke:#840084; stroke-width:0.1588; stroke-opacity:1; 
stroke-linecap:round; stroke-linejoin:round;">
<text x="20.4531" y="12.7068"
textLength="23.3242" font-size="1.6933" lengthAdjust="spacingAndGlyphs"
text-anchor="middle" opacity="0">Jacdac_Sockets:JD_DATA</text>
<g class="stroked-text"><desc>Jacdac_Sockets:JD_DATA</desc>
<path d="M9.5674 11.3810
L9.5674 12.2882
" />
<path d="M9.5674 12.2882
L9.5069 12.4696
" />
<path d="M9.5069 12.4696
L9.3860 12.5906
" />
<path d="M9.3860 12.5906
L9.2045 12.6510
" />
<path d="M9.2045 12.6510
L9.0836 12.6510
" />
<path d="M10.7164 12.6510
L10.7164 11.9858
" />
<path d="M10.7164 11.9858
L10.6559 11.8648
" />
<path d="M10.6559 11.8648
L10.5350 11.8044
" />
<path d="M10.5350 11.8044
L10.2931 11.8044
" />
<path d="M10.2931 11.8044
L10.1721 11.8648
" />
<path d="M10.7164 12.5906
L10.5955 12.6510
" />
<path d="M10.5955 12.6510
L10.2931 12.6510
" />
<path d="M10.2931 12.6510
L10.1721 12.5906
" />
<path d="M10.1721 12.5906
L10.1117 12.4696
" />
<path d="M10.1117 12.4696
L10.1117 12.3486
" />
<path d="M10.1117 12.3486
L10.1721 12.2277
" />
<path d="M10.1721 12.2277
L10.2931 12.1672
" />
<path d="M10.2931 12.1672
L10.5955 12.1672
" />
<path d="M10.5955 12.1672
L10.7164 12.1067
" />
<path d="M11.8654 12.5906
L11.7445 12.6510
" />
<path d="M11.7445 12.6510
L11.5026 12.6510
" />
<path d="M11.5026 12.6510
L11.3816 12.5906
" />
<path d="M11.3816 12.5906
L11.3211 12.5301
" />
<path d="M11.3211 12.5301
L11.2607 12.4091
" />
<path d="M11.2607 12.4091
L11.2607 12.0463
" />
<path d="M11.2607 12.0463
L11.3211 11.9253
" />
<path d="M11.3211 11.9253
L11.3816 11.8648
" />
<path d="M11.3816 11.8648
L11.5026 11.8044
" />
<path d="M11.5026 11.8044
L11.7445 11.8044
" />
<path d="M11.7445 11.8044
L11.8654 11.8648
" />
<path d="M12.9540 12.6510
L12.9540 11.3810
" />
<path d="M12.9540 12.5906
L12.8331 12.6510
" />
<path d="M12.8331 12.6510
L12.5912 12.6510
" />
<path d="M12.5912 12.6510
L12.4702 12.5906
" />
<path d="M12.4702 12.5906
L12.4097 12.5301
" />
<path d="M12.4097 12.5301
L12.3493 12.4091
" />
<path d="M12.3493 12.4091
L12.3493 12.0463
" />
<path d="M12.3493 12.0463
L12.4097 11.9253
" />
<path d="M12.4097 11.9253
L12.4702 11.8648
" />
<path d="M12.4702 11.8648
L12.5912 11.8044
" />
<path d="M12.5912 11.8044
L12.8331 11.8044
" />
<path d="M12.8331 11.8044
L12.9540 11.8648
" />
<path d="M14.1030 12.6510
L14.1030 11.9858
" />
<path d="M14.1030 11.9858
L14.0425 11.8648
" />
<path d="M14.0425 11.8648
L13.9216 11.8044
" />
<path d="M13.9216 11.8044
L13.6797 11.8044
" />
<path d="M13.6797 11.8044
L13.5587 11.8648
" />
<path d="M14.1030 12.5906
L13.9821 12.6510
" />
<path d="M13.9821 12.6510
L13.6797 12.6510
" />
<path d="M13.6797 12.6510
L13.5587 12.5906
" />
<path d="M13.5587 12.5906
L13.4983 12.4696
" />
<path d="M13.4983 12.4696
L13.4983 12.3486
" />
<path d="M13.4983 12.3486
L13.5587 12.2277
" />
<path d="M13.5587 12.2277
L13.6797 12.1672
" />
<path d="M13.6797 12.1672
L13.9821 12.1672
" />
<path d="M13.9821 12.1672
L14.1030 12.1067
" />
<path d="M15.2520 12.5906
L15.1311 12.6510
" />
<path d="M15.1311 12.6510
L14.8892 12.6510
" />
<path d="M14.8892 12.6510
L14.7682 12.5906
" />
<path d="M14.7682 12.5906
L14.7077 12.5301
" />
<path d="M14.7077 12.5301
L14.6473 12.4091
" />
<path d="M14.6473 12.4091
L14.6473 12.0463
" />
<path d="M14.6473 12.0463
L14.7077 11.9253
" />
<path d="M14.7077 11.9253
L14.7682 11.8648
" />
<path d="M14.7682 11.8648
L14.8892 11.8044
" />
<path d="M14.8892 11.8044
L15.1311 11.8044
" />
<path d="M15.1311 11.8044
L15.2520 11.8648
" />
<path d="M15.4940 12.7720
L16.4616 12.7720
" />
<path d="M16.7035 12.5906
L16.8849 12.6510
" />
<path d="M16.8849 12.6510
L17.1873 12.6510
" />
<path d="M17.1873 12.6510
L17.3082 12.5906
" />
<path d="M17.3082 12.5906
L17.3687 12.5301
" />
<path d="M17.3687 12.5301
L17.4292 12.4091
" />
<path d="M17.4292 12.4091
L17.4292 12.2882
" />
<path d="M17.4292 12.2882
L17.3687 12.1672
" />
<path d="M17.3687 12.1672
L17.3082 12.1067
" />
<path d="M17.3082 12.1067
L17.1873 12.0463
" />
<path d="M17.1873 12.0463
L16.9454 11.9858
" />
<path d="M16.9454 11.9858
L16.8244 11.9253
" />
<path d="M16.8244 11.9253
L16.7639 11.8648
" />
<path d="M16.7639 11.8648
L16.7035 11.7439
" />
<path d="M16.7035 11.7439
L16.7035 11.6229
" />
<path d="M16.7035 11.6229
L16.7639 11.5020
" />
<path d="M16.7639 11.5020
L16.8244 11.4415
" />
<path d="M16.8244 11.4415
L16.9454 11.3810
" />
<path d="M16.9454 11.3810
L17.2477 11.3810
" />
<path d="M17.2477 11.3810
L17.4292 11.4415
" />
<path d="M18.1549 12.6510
L18.0339 12.5906
" />
<path d="M18.0339 12.5906
L17.9734 12.5301
" />
<path d="M17.9734 12.5301
L17.9130 12.4091
" />
<path d="M17.9130 12.4091
L17.9130 12.0463
" />
<path d="M17.9130 12.0463
L17.9734 11.9253
" />
<path d="M17.9734 11.9253
L18.0339 11.8648
" />
<path d="M18.0339 11.8648
L18.1549 11.8044
" />
<path d="M18.1549 11.8044
L18.3363 11.8044
" />
<path d="M18.3363 11.8044
L18.4572 11.8648
" />
<path d="M18.4572 11.8648
L18.5177 11.9253
" />
<path d="M18.5177 11.9253
L18.5782 12.0463
" />
<path d="M18.5782 12.0463
L18.5782 12.4091
" />
<path d="M18.5782 12.4091
L18.5177 12.5301
" />
<path d="M18.5177 12.5301
L18.4572 12.5906
" />
<path d="M18.4572 12.5906
L18.3363 12.6510
" />
<path d="M18.3363 12.6510
L18.1549 12.6510
" />
<path d="M19.6667 12.5906
L19.5458 12.6510
" />
<path d="M19.5458 12.6510
L19.3039 12.6510
" />
<path d="M19.3039 12.6510
L19.1829 12.5906
" />
<path d="M19.1829 12.5906
L19.1224 12.5301
" />
<path d="M19.1224 12.5301
L19.0620 12.4091
" />
<path d="M19.0620 12.4091
L19.0620 12.0463
" />
<path d="M19.0620 12.0463
L19.1224 11.9253
" />
<path d="M19.1224 11.9253
L19.1829 11.8648
" />
<path d="M19.1829 11.8648
L19.3039 11.8044
" />
<path d="M19.3039 11.8044
L19.5458 11.8044
" />
<path d="M19.5458 11.8044
L19.6667 11.8648
" />
<path d="M20.2110 12.6510
L20.2110 11.3810
" />
<path d="M20.3320 12.1672
L20.6948 12.6510
" />
<path d="M20.6948 11.8044
L20.2110 12.2882
" />
<path d="M21.7229 12.5906
L21.6020 12.6510
" />
<path d="M21.6020 12.6510
L21.3601 12.6510
" />
<path d="M21.3601 12.6510
L21.2391 12.5906
" />
<path d="M21.2391 12.5906
L21.1787 12.4696
" />
<path d="M21.1787 12.4696
L21.1787 11.9858
" />
<path d="M21.1787 11.9858
L21.2391 11.8648
" />
<path d="M21.2391 11.8648
L21.3601 11.8044
" />
<path d="M21.3601 11.8044
L21.6020 11.8044
" />
<path d="M21.6020 11.8044
L21.7229 11.8648
" />
<path d="M21.7229 11.8648
L21.7834 11.9858
" />
<path d="M21.7834 11.9858
L21.7834 12.1067
" />
<path d="M21.7834 12.1067
L21.1787 12.2277
" />
<path d="M22.1463 11.8044
L22.6301 11.8044
" />
<path d="M22.3277 11.3810
L22.3277 12.4696
" />
<path d="M22.3277 12.4696
L22.3882 12.5906
" />
<path d="M22.3882 12.5906
L22.5092 12.6510
" />
<path d="M22.5092 12.6510
L22.6301 12.6510
" />
<path d="M22.9930 12.5906
L23.1139 12.6510
" />
<path d="M23.1139 12.6510
L23.3558 12.6510
" />
<path d="M23.3558 12.6510
L23.4768 12.5906
" />
<path d="M23.4768 12.5906
L23.5372 12.4696
" />
<path d="M23.5372 12.4696
L23.5372 12.4091
" />
<path d="M23.5372 12.4091
L23.4768 12.2882
" />
<path d="M23.4768 12.2882
L23.3558 12.2277
" />
<path d="M23.3558 12.2277
L23.1744 12.2277
" />
<path d="M23.1744 12.2277
L23.0534 12.1672
" />
<path d="M23.0534 12.1672
L22.9930 12.0463
" />
<path d="M22.9930 12.0463
L22.9930 11.9858
" />
<path d="M22.9930 11.9858
L23.0534 11.8648
" />
<path d="M23.0534 11.8648
L23.1744 11.8044
" />
<path d="M23.1744 11.8044
L23.3558 11.8044
" />
<path d="M23.3558 11.8044
L23.4768 11.8648
" />
<path d="M24.0815 12.5301
L24.1420 12.5906
" />
<path d="M24.1420 12.5906
L24.0815 12.6510
" />
<path d="M24.0815 12.6510
L24.0211 12.5906
" />
<path d="M24.0211 12.5906
L24.0815 12.5301
" />
<path d="M24.0815 12.5301
L24.0815 12.6510
" />
<path d="M24.0815 11.8648
L24.1420 11.9253
" />
<path d="M24.1420 11.9253
L24.0815 11.9858
" />
<path d="M24.0815 11.9858
L24.0211 11.9253
" />
<path d="M24.0211 11.9253
L24.0815 11.8648
" />
<path d="M24.0815 11.8648
L24.0815 11.9858
" />
<path d="M25.0492 11.3810
L25.0492 12.2882
" />
<path d="M25.0492 12.2882
L24.9887 12.4696
" />
<path d="M24.9887 12.4696
L24.8678 12.5906
" />
<path d="M24.8678 12.5906
L24.6863 12.6510
" />
<path d="M24.6863 12.6510
L24.5654 12.6510
" />
<path d="M25.6539 12.6510
L25.6539 11.3810
" />
<path d="M25.6539 11.3810
L25.9563 11.3810
" />
<path d="M25.9563 11.3810
L26.1377 11.4415
" />
<path d="M26.1377 11.4415
L26.2587 11.5625
" />
<path d="M26.2587 11.5625
L26.3192 11.6834
" />
<path d="M26.3192 11.6834
L26.3796 11.9253
" />
<path d="M26.3796 11.9253
L26.3796 12.1067
" />
<path d="M26.3796 12.1067
L26.3192 12.3486
" />
<path d="M26.3192 12.3486
L26.2587 12.4696
" />
<path d="M26.2587 12.4696
L26.1377 12.5906
" />
<path d="M26.1377 12.5906
L25.9563 12.6510
" />
<path d="M25.9563 12.6510
L25.6539 12.6510
" />
<path d="M26.6216 12.7720
L27.5892 12.7720
" />
<path d="M27.8915 12.6510
L27.8915 11.3810
" />
<path d="M27.8915 11.3810
L28.1939 11.3810
" />
<path d="M28.1939 11.3810
L28.3753 11.4415
" />
<path d="M28.3753 11.4415
L28.4963 11.5625
" />
<path d="M28.4963 11.5625
L28.5568 11.6834
" />
<path d="M28.5568 11.6834
L28.6172 11.9253
" />
<path d="M28.6172 11.9253
L28.6172 12.1067
" />
<path d="M28.6172 12.1067
L28.5568 12.3486
" />
<path d="M28.5568 12.3486
L28.4963 12.4696
" />
<path d="M28.4963 12.4696
L28.3753 12.5906
" />
<path d="M28.3753 12.5906
L28.1939 12.6510
" />
<path d="M28.1939 12.6510
L27.8915 12.6510
" />
<path d="M29.1011 12.2882
L29.7058 12.2882
" />
<path d="M28.9801 12.6510
L29.4034 11.3810
" />
<path d="M29.4034 11.3810
L29.8268 12.6510
" />
<path d="M30.0687 11.3810
L30.7944 11.3810
" />
<path d="M30.4316 12.6510
L30.4316 11.3810
" />
<path d="M31.1573 12.2882
L31.7620 12.2882
" />
<path d="M31.0363 12.6510
L31.4596 11.3810
" />
<path d="M31.4596 11.3810
L31.8830 12.6510
" />
</g><text x="20.4531" y="14.9928"
textLength="34.0886" font-size="1.6933" lengthAdjust="spacingAndGlyphs"
text-anchor="middle" opacity="0">Gerber socket for Jacdac data bus</text>
<g class="stroked-text"><desc>Gerber socket for Jacdac data bus</desc>
<path d="M4.4876 13.7275
L4.3666 13.6670
" />
<path d="M4.3666 13.6670
L4.1852 13.6670
" />
<path d="M4.1852 13.6670
L4.0038 13.7275
" />
<path d="M4.0038 13.7275
L3.8828 13.8485
" />
<path d="M3.8828 13.8485
L3.8223 13.9694
" />
<path d="M3.8223 13.9694
L3.7619 14.2113
" />
<path d="M3.7619 14.2113
L3.7619 14.3927
" />
<path d="M3.7619 14.3927
L3.8223 14.6346
" />
<path d="M3.8223 14.6346
L3.8828 14.7556
" />
<path d="M3.8828 14.7556
L4.0038 14.8766
" />
<path d="M4.0038 14.8766
L4.1852 14.9370
" />
<path d="M4.1852 14.9370
L4.3061 14.9370
" />
<path d="M4.3061 14.9370
L4.4876 14.8766
" />
<path d="M4.4876 14.8766
L4.5480 14.8161
" />
<path d="M4.5480 14.8161
L4.5480 14.3927
" />
<path d="M4.5480 14.3927
L4.3061 14.3927
" />
<path d="M5.5761 14.8766
L5.4552 14.9370
" />
<path d="M5.4552 14.9370
L5.2133 14.9370
" />
<path d="M5.2133 14.9370
L5.0923 14.8766
" />
<path d="M5.0923 14.8766
L5.0319 14.7556
" />
<path d="M5.0319 14.7556
L5.0319 14.2718
" />
<path d="M5.0319 14.2718
L5.0923 14.1508
" />
<path d="M5.0923 14.1508
L5.2133 14.0904
" />
<path d="M5.2133 14.0904
L5.4552 14.0904
" />
<path d="M5.4552 14.0904
L5.5761 14.1508
" />
<path d="M5.5761 14.1508
L5.6366 14.2718
" />
<path d="M5.6366 14.2718
L5.6366 14.3927
" />
<path d="M5.6366 14.3927
L5.0319 14.5137
" />
<path d="M6.1809 14.9370
L6.1809 14.0904
" />
<path d="M6.1809 14.3323
L6.2414 14.2113
" />
<path d="M6.2414 14.2113
L6.3019 14.1508
" />
<path d="M6.3019 14.1508
L6.4228 14.0904
" />
<path d="M6.4228 14.0904
L6.5438 14.0904
" />
<path d="M6.9671 14.9370
L6.9671 13.6670
" />
<path d="M6.9671 14.1508
L7.0881 14.0904
" />
<path d="M7.0881 14.0904
L7.3300 14.0904
" />
<path d="M7.3300 14.0904
L7.4509 14.1508
" />
<path d="M7.4509 14.1508
L7.5114 14.2113
" />
<path d="M7.5114 14.2113
L7.5719 14.3323
" />
<path d="M7.5719 14.3323
L7.5719 14.6951
" />
<path d="M7.5719 14.6951
L7.5114 14.8161
" />
<path d="M7.5114 14.8161
L7.4509 14.8766
" />
<path d="M7.4509 14.8766
L7.3300 14.9370
" />
<path d="M7.3300 14.9370
L7.0881 14.9370
" />
<path d="M7.0881 14.9370
L6.9671 14.8766
" />
<path d="M8.5999 14.8766
L8.4790 14.9370
" />
<path d="M8.4790 14.9370
L8.2371 14.9370
" />
<path d="M8.2371 14.9370
L8.1161 14.8766
" />
<path d="M8.1161 14.8766
L8.0557 14.7556
" />
<path d="M8.0557 14.7556
L8.0557 14.2718
" />
<path d="M8.0557 14.2718
L8.1161 14.1508
" />
<path d="M8.1161 14.1508
L8.2371 14.0904
" />
<path d="M8.2371 14.0904
L8.4790 14.0904
" />
<path d="M8.4790 14.0904
L8.5999 14.1508
" />
<path d="M8.5999 14.1508
L8.6604 14.2718
" />
<path d="M8.6604 14.2718
L8.6604 14.3927
" />
<path d="M8.6604 14.3927
L8.0557 14.5137
" />
<path d="M9.2047 14.9370
L9.2047 14.0904
" />
<path d="M9.2047 14.3323
L9.2652 14.2113
" />
<path d="M9.2652 14.2113
L9.3257 14.1508
" />
<path d="M9.3257 14.1508
L9.4466 14.0904
" />
<path d="M9.4466 14.0904
L9.5676 14.0904
" />
<path d="M10.8981 14.8766
L11.0190 14.9370
" />
<path d="M11.0190 14.9370
L11.2609 14.9370
" />
<path d="M11.2609 14.9370
L11.3819 14.8766
" />
<path d="M11.3819 14.8766
L11.4423 14.7556
" />
<path d="M11.4423 14.7556
L11.4423 14.6951
" />
<path d="M11.4423 14.6951
L11.3819 14.5742
" />
<path d="M11.3819 14.5742
L11.2609 14.5137
" />
<path d="M11.2609 14.5137
L11.0795 14.5137
" />
<path d="M11.0795 14.5137
L10.9585 14.4532
" />
<path d="M10.9585 14.4532
L10.8981 14.3323
" />
<path d="M10.8981 14.3323
L10.8981 14.2718
" />
<path d="M10.8981 14.2718
L10.9585 14.1508
" />
<path d="M10.9585 14.1508
L11.0795 14.0904
" />
<path d="M11.0795 14.0904
L11.2609 14.0904
" />
<path d="M11.2609 14.0904
L11.3819 14.1508
" />
<path d="M12.1681 14.9370
L12.0471 14.8766
" />
<path d="M12.0471 14.8766
L11.9866 14.8161
" />
<path d="M11.9866 14.8161
L11.9262 14.6951
" />
<path d="M11.9262 14.6951
L11.9262 14.3323
" />
<path d="M11.9262 14.3323
L11.9866 14.2113
" />
<path d="M11.9866 14.2113
L12.0471 14.1508
" />
<path d="M12.0471 14.1508
L12.1681 14.0904
" />
<path d="M12.1681 14.0904
L12.3495 14.0904
" />
<path d="M12.3495 14.0904
L12.4704 14.1508
" />
<path d="M12.4704 14.1508
L12.5309 14.2113
" />
<path d="M12.5309 14.2113
L12.5914 14.3323
" />
<path d="M12.5914 14.3323
L12.5914 14.6951
" />
<path d="M12.5914 14.6951
L12.5309 14.8161
" />
<path d="M12.5309 14.8161
L12.4704 14.8766
" />
<path d="M12.4704 14.8766
L12.3495 14.9370
" />
<path d="M12.3495 14.9370
L12.1681 14.9370
" />
<path d="M13.6799 14.8766
L13.5590 14.9370
" />
<path d="M13.5590 14.9370
L13.3171 14.9370
" />
<path d="M13.3171 14.9370
L13.1961 14.8766
" />
<path d="M13.1961 14.8766
L13.1356 14.8161
" />
<path d="M13.1356 14.8161
L13.0752 14.6951
" />
<path d="M13.0752 14.6951
L13.0752 14.3323
" />
<path d="M13.0752 14.3323
L13.1356 14.2113
" />
<path d="M13.1356 14.2113
L13.1961 14.1508
" />
<path d="M13.1961 14.1508
L13.3171 14.0904
" />
<path d="M13.3171 14.0904
L13.5590 14.0904
" />
<path d="M13.5590 14.0904
L13.6799 14.1508
" />
<path d="M14.2242 14.9370
L14.2242 13.6670
" />
<path d="M14.3452 14.4532
L14.7080 14.9370
" />
<path d="M14.7080 14.0904
L14.2242 14.5742
" />
<path d="M15.7361 14.8766
L15.6152 14.9370
" />
<path d="M15.6152 14.9370
L15.3733 14.9370
" />
<path d="M15.3733 14.9370
L15.2523 14.8766
" />
<path d="M15.2523 14.8766
L15.1919 14.7556
" />
<path d="M15.1919 14.7556
L15.1919 14.2718
" />
<path d="M15.1919 14.2718
L15.2523 14.1508
" />
<path d="M15.2523 14.1508
L15.3733 14.0904
" />
<path d="M15.3733 14.0904
L15.6152 14.0904
" />
<path d="M15.6152 14.0904
L15.7361 14.1508
" />
<path d="M15.7361 14.1508
L15.7966 14.2718
" />
<path d="M15.7966 14.2718
L15.7966 14.3927
" />
<path d="M15.7966 14.3927
L15.1919 14.5137
" />
<path d="M16.1595 14.0904
L16.6433 14.0904
" />
<path d="M16.3409 13.6670
L16.3409 14.7556
" />
<path d="M16.3409 14.7556
L16.4014 14.8766
" />
<path d="M16.4014 14.8766
L16.5224 14.9370
" />
<path d="M16.5224 14.9370
L16.6433 14.9370
" />
<path d="M17.8528 14.0904
L18.3366 14.0904
" />
<path d="M18.0342 14.9370
L18.0342 13.8485
" />
<path d="M18.0342 13.8485
L18.0947 13.7275
" />
<path d="M18.0947 13.7275
L18.2157 13.6670
" />
<path d="M18.2157 13.6670
L18.3366 13.6670
" />
<path d="M18.9414 14.9370
L18.8204 14.8766
" />
<path d="M18.8204 14.8766
L18.7599 14.8161
" />
<path d="M18.7599 14.8161
L18.6995 14.6951
" />
<path d="M18.6995 14.6951
L18.6995 14.3323
" />
<path d="M18.6995 14.3323
L18.7599 14.2113
" />
<path d="M18.7599 14.2113
L18.8204 14.1508
" />
<path d="M18.8204 14.1508
L18.9414 14.0904
" />
<path d="M18.9414 14.0904
L19.1228 14.0904
" />
<path d="M19.1228 14.0904
L19.2437 14.1508
" />
<path d="M19.2437 14.1508
L19.3042 14.2113
" />
<path d="M19.3042 14.2113
L19.3647 14.3323
" />
<path d="M19.3647 14.3323
L19.3647 14.6951
" />
<path d="M19.3647 14.6951
L19.3042 14.8161
" />
<path d="M19.3042 14.8161
L19.2437 14.8766
" />
<path d="M19.2437 14.8766
L19.1228 14.9370
" />
<path d="M19.1228 14.9370
L18.9414 14.9370
" />
<path d="M19.9089 14.9370
L19.9089 14.0904
" />
<path d="M19.9089 14.3323
L19.9694 14.2113
" />
<path d="M19.9694 14.2113
L20.0299 14.1508
" />
<path d="M20.0299 14.1508
L20.1508 14.0904
" />
<path d="M20.1508 14.0904
L20.2718 14.0904
" />
<path d="M22.0256 13.6670
L22.0256 14.5742
" />
<path d="M22.0256 14.5742
L21.9651 14.7556
" />
<path d="M21.9651 14.7556
L21.8442 14.8766
" />
<path d="M21.8442 14.8766
L21.6627 14.9370
" />
<path d="M21.6627 14.9370
L21.5418 14.9370
" />
<path d="M23.1746 14.9370
L23.1746 14.2718
" />
<path d="M23.1746 14.2718
L23.1141 14.1508
" />
<path d="M23.1141 14.1508
L22.9932 14.0904
" />
<path d="M22.9932 14.0904
L22.7513 14.0904
" />
<path d="M22.7513 14.0904
L22.6303 14.1508
" />
<path d="M23.1746 14.8766
L23.0537 14.9370
" />
<path d="M23.0537 14.9370
L22.7513 14.9370
" />
<path d="M22.7513 14.9370
L22.6303 14.8766
" />
<path d="M22.6303 14.8766
L22.5699 14.7556
" />
<path d="M22.5699 14.7556
L22.5699 14.6346
" />
<path d="M22.5699 14.6346
L22.6303 14.5137
" />
<path d="M22.6303 14.5137
L22.7513 14.4532
" />
<path d="M22.7513 14.4532
L23.0537 14.4532
" />
<path d="M23.0537 14.4532
L23.1746 14.3927
" />
<path d="M24.3236 14.8766
L24.2027 14.9370
" />
<path d="M24.2027 14.9370
L23.9608 14.9370
" />
<path d="M23.9608 14.9370
L23.8398 14.8766
" />
<path d="M23.8398 14.8766
L23.7793 14.8161
" />
<path d="M23.7793 14.8161
L23.7189 14.6951
" />
<path d="M23.7189 14.6951
L23.7189 14.3323
" />
<path d="M23.7189 14.3323
L23.7793 14.2113
" />
<path d="M23.7793 14.2113
L23.8398 14.1508
" />
<path d="M23.8398 14.1508
L23.9608 14.0904
" />
<path d="M23.9608 14.0904
L24.2027 14.0904
" />
<path d="M24.2027 14.0904
L24.3236 14.1508
" />
<path d="M25.4122 14.9370
L25.4122 13.6670
" />
<path d="M25.4122 14.8766
L25.2913 14.9370
" />
<path d="M25.2913 14.9370
L25.0494 14.9370
" />
<path d="M25.0494 14.9370
L24.9284 14.8766
" />
<path d="M24.9284 14.8766
L24.8679 14.8161
" />
<path d="M24.8679 14.8161
L24.8075 14.6951
" />
<path d="M24.8075 14.6951
L24.8075 14.3323
" />
<path d="M24.8075 14.3323
L24.8679 14.2113
" />
<path d="M24.8679 14.2113
L24.9284 14.1508
" />
<path d="M24.9284 14.1508
L25.0494 14.0904
" />
<path d="M25.0494 14.0904
L25.2913 14.0904
" />
<path d="M25.2913 14.0904
L25.4122 14.1508
" />
<path d="M26.5612 14.9370
L26.5612 14.2718
" />
<path d="M26.5612 14.2718
L26.5007 14.1508
" />
<path d="M26.5007 14.1508
L26.3798 14.0904
" />
<path d="M26.3798 14.0904
L26.1379 14.0904
" />
<path d="M26.1379 14.0904
L26.0169 14.1508
" />
<path d="M26.5612 14.8766
L26.4403 14.9370
" />
<path d="M26.4403 14.9370
L26.1379 14.9370
" />
<path d="M26.1379 14.9370
L26.0169 14.8766
" />
<path d="M26.0169 14.8766
L25.9565 14.7556
" />
<path d="M25.9565 14.7556
L25.9565 14.6346
" />
<path d="M25.9565 14.6346
L26.0169 14.5137
" />
<path d="M26.0169 14.5137
L26.1379 14.4532
" />
<path d="M26.1379 14.4532
L26.4403 14.4532
" />
<path d="M26.4403 14.4532
L26.5612 14.3927
" />
<path d="M27.7102 14.8766
L27.5893 14.9370
" />
<path d="M27.5893 14.9370
L27.3474 14.9370
" />
<path d="M27.3474 14.9370
L27.2264 14.8766
" />
<path d="M27.2264 14.8766
L27.1659 14.8161
" />
<path d="M27.1659 14.8161
L27.1055 14.6951
" />
<path d="M27.1055 14.6951
L27.1055 14.3323
" />
<path d="M27.1055 14.3323
L27.1659 14.2113
" />
<path d="M27.1659 14.2113
L27.2264 14.1508
" />
<path d="M27.2264 14.1508
L27.3474 14.0904
" />
<path d="M27.3474 14.0904
L27.5893 14.0904
" />
<path d="M27.5893 14.0904
L27.7102 14.1508
" />
<path d="M29.7664 14.9370
L29.7664 13.6670
" />
<path d="M29.7664 14.8766
L29.6455 14.9370
" />
<path d="M29.6455 14.9370
L29.4036 14.9370
" />
<path d="M29.4036 14.9370
L29.2826 14.8766
" />
<path d="M29.2826 14.8766
L29.2221 14.8161
" />
<path d="M29.2221 14.8161
L29.1617 14.6951
" />
<path d="M29.1617 14.6951
L29.1617 14.3323
" />
<path d="M29.1617 14.3323
L29.2221 14.2113
" />
<path d="M29.2221 14.2113
L29.2826 14.1508
" />
<path d="M29.2826 14.1508
L29.4036 14.0904
" />
<path d="M29.4036 14.0904
L29.6455 14.0904
" />
<path d="M29.6455 14.0904
L29.7664 14.1508
" />
<path d="M30.9154 14.9370
L30.9154 14.2718
" />
<path d="M30.9154 14.2718
L30.8549 14.1508
" />
<path d="M30.8549 14.1508
L30.7340 14.0904
" />
<path d="M30.7340 14.0904
L30.4921 14.0904
" />
<path d="M30.4921 14.0904
L30.3711 14.1508
" />
<path d="M30.9154 14.8766
L30.7945 14.9370
" />
<path d="M30.7945 14.9370
L30.4921 14.9370
" />
<path d="M30.4921 14.9370
L30.3711 14.8766
" />
<path d="M30.3711 14.8766
L30.3107 14.7556
" />
<path d="M30.3107 14.7556
L30.3107 14.6346
" />
<path d="M30.3107 14.6346
L30.3711 14.5137
" />
<path d="M30.3711 14.5137
L30.4921 14.4532
" />
<path d="M30.4921 14.4532
L30.7945 14.4532
" />
<path d="M30.7945 14.4532
L30.9154 14.3927
" />
<path d="M31.3387 14.0904
L31.8225 14.0904
" />
<path d="M31.5201 13.6670
L31.5201 14.7556
" />
<path d="M31.5201 14.7556
L31.5806 14.8766
" />
<path d="M31.5806 14.8766
L31.7016 14.9370
" />
<path d="M31.7016 14.9370
L31.8225 14.9370
" />
<path d="M32.7901 14.9370
L32.7901 14.2718
" />
<path d="M32.7901 14.2718
L32.7296 14.1508
" />
<path d="M32.7296 14.1508
L32.6087 14.0904
" />
<path d="M32.6087 14.0904
L32.3668 14.0904
" />
<path d="M32.3668 14.0904
L32.2458 14.1508
" />
<path d="M32.7901 14.8766
L32.6692 14.9370
" />
<path d="M32.6692 14.9370
L32.3668 14.9370
" />
<path d="M32.3668 14.9370
L32.2458 14.8766
" />
<path d="M32.2458 14.8766
L32.1854 14.7556
" />
<path d="M32.1854 14.7556
L32.1854 14.6346
" />
<path d="M32.1854 14.6346
L32.2458 14.5137
" />
<path d="M32.2458 14.5137
L32.3668 14.4532
" />
<path d="M32.3668 14.4532
L32.6692 14.4532
" />
<path d="M32.6692 14.4532
L32.7901 14.3927
" />
<path d="M34.3624 14.9370
L34.3624 13.6670
" />
<path d="M34.3624 14.1508
L34.4834 14.0904
" />
<path d="M34.4834 14.0904
L34.7253 14.0904
" />
<path d="M34.7253 14.0904
L34.8462 14.1508
" />
<path d="M34.8462 14.1508
L34.9067 14.2113
" />
<path d="M34.9067 14.2113
L34.9672 14.3323
" />
<path d="M34.9672 14.3323
L34.9672 14.6951
" />
<path d="M34.9672 14.6951
L34.9067 14.8161
" />
<path d="M34.9067 14.8161
L34.8462 14.8766
" />
<path d="M34.8462 14.8766
L34.7253 14.9370
" />
<path d="M34.7253 14.9370
L34.4834 14.9370
" />
<path d="M34.4834 14.9370
L34.3624 14.8766
" />
<path d="M36.0557 14.0904
L36.0557 14.9370
" />
<path d="M35.5114 14.0904
L35.5114 14.7556
" />
<path d="M35.5114 14.7556
L35.5719 14.8766
" />
<path d="M35.5719 14.8766
L35.6929 14.9370
" />
<path d="M35.6929 14.9370
L35.8743 14.9370
" />
<path d="M35.8743 14.9370
L35.9952 14.8766
" />
<path d="M35.9952 14.8766
L36.0557 14.8161
" />
<path d="M36.6000 14.8766
L36.7209 14.9370
" />
<path d="M36.7209 14.9370
L36.9628 14.9370
" />
<path d="M36.9628 14.9370
L37.0838 14.8766
" />
<path d="M37.0838 14.8766
L37.1442 14.7556
" />
<path d="M37.1442 14.7556
L37.1442 14.6951
" />
<path d="M37.1442 14.6951
L37.0838 14.5742
" />
<path d="M37.0838 14.5742
L36.9628 14.5137
" />
<path d="M36.9628 14.5137
L36.7814 14.5137
" />
<path d="M36.7814 14.5137
L36.6604 14.4532
" />
<path d="M36.6604 14.4532
L36.6000 14.3323
" />
<path d="M36.6000 14.3323
L36.6000 14.2718
" />
<path d="M36.6000 14.2718
L36.6604 14.1508
" />
<path d="M36.6604 14.1508
L36.7814 14.0904
" />
<path d="M36.7814 14.0904
L36.9628 14.0904
" />
<path d="M36.9628 14.0904
L37.0838 14.1508
" />
</g></g> 
</svg>
