<?xml version="1.0" standalone="no"?>
 <!DOCTYPE svg PUBLIC "-//W3C//DTD SVG 1.1//EN" 
 "http://www.w3.org/Graphics/SVG/1.1/DTD/svg11.dtd"> 
<svg
  xmlns:svg="http://www.w3.org/2000/svg"
  xmlns="http://www.w3.org/2000/svg"
  xmlns:xlink="http://www.w3.org/1999/xlink"
  version="1.1"
  width="42.4942mm" height="17.0942mm" viewBox="0.0000 0.0000 42.4942 17.0942">
<title>SVG Image created as JD_PWR_symbol.svg date 2024/09/04 17:44:00 </title>
  <desc>Image generated by Eeschema-SVG </desc>
<g style="fill:#000000; fill-opacity:1.0000;stroke:#000000; stroke-opacity:1.0000;
stroke-linecap:round; stroke-linejoin:round;"
 transform="translate(0 0) scale(1 1)">
</g>
<g style="fill:none; 
stroke:#840000; stroke-width:0.1524; stroke-opacity:1; 
stroke-linecap:round; stroke-linejoin:round;">
<path d="M27.6015 2.9531 A2.5400 2.5400 0.0 1 0 27.6015 8.0329" />
</g>
<g style="fill:none; 
stroke:#840000; stroke-width:0.1588; stroke-opacity:1; 
stroke-linecap:round; stroke-linejoin:round;">
<text x="21.2515" y="10.1922"
textLength="27.4970" font-size="1.6933" lengthAdjust="spacingAndGlyphs"
text-anchor="middle" opacity="0">Jacdac power Gerber socket</text>
<g class="stroked-text"><desc>Jacdac power Gerber socket</desc>
<path d="M8.2794 8.8664
L8.2794 9.7736
" />
<path d="M8.2794 9.7736
L8.2189 9.9550
" />
<path d="M8.2189 9.9550
L8.0980 10.0760
" />
<path d="M8.0980 10.0760
L7.9165 10.1364
" />
<path d="M7.9165 10.1364
L7.7956 10.1364
" />
<path d="M9.4284 10.1364
L9.4284 9.4712
" />
<path d="M9.4284 9.4712
L9.3679 9.3502
" />
<path d="M9.3679 9.3502
L9.2470 9.2898
" />
<path d="M9.2470 9.2898
L9.0051 9.2898
" />
<path d="M9.0051 9.2898
L8.8841 9.3502
" />
<path d="M9.4284 10.0760
L9.3075 10.1364
" />
<path d="M9.3075 10.1364
L9.0051 10.1364
" />
<path d="M9.0051 10.1364
L8.8841 10.0760
" />
<path d="M8.8841 10.0760
L8.8237 9.9550
" />
<path d="M8.8237 9.9550
L8.8237 9.8340
" />
<path d="M8.8237 9.8340
L8.8841 9.7131
" />
<path d="M8.8841 9.7131
L9.0051 9.6526
" />
<path d="M9.0051 9.6526
L9.3075 9.6526
" />
<path d="M9.3075 9.6526
L9.4284 9.5921
" />
<path d="M10.5774 10.0760
L10.4565 10.1364
" />
<path d="M10.4565 10.1364
L10.2146 10.1364
" />
<path d="M10.2146 10.1364
L10.0936 10.0760
" />
<path d="M10.0936 10.0760
L10.0331 10.0155
" />
<path d="M10.0331 10.0155
L9.9727 9.8945
" />
<path d="M9.9727 9.8945
L9.9727 9.5317
" />
<path d="M9.9727 9.5317
L10.0331 9.4107
" />
<path d="M10.0331 9.4107
L10.0936 9.3502
" />
<path d="M10.0936 9.3502
L10.2146 9.2898
" />
<path d="M10.2146 9.2898
L10.4565 9.2898
" />
<path d="M10.4565 9.2898
L10.5774 9.3502
" />
<path d="M11.6660 10.1364
L11.6660 8.8664
" />
<path d="M11.6660 10.0760
L11.5451 10.1364
" />
<path d="M11.5451 10.1364
L11.3032 10.1364
" />
<path d="M11.3032 10.1364
L11.1822 10.0760
" />
<path d="M11.1822 10.0760
L11.1217 10.0155
" />
<path d="M11.1217 10.0155
L11.0613 9.8945
" />
<path d="M11.0613 9.8945
L11.0613 9.5317
" />
<path d="M11.0613 9.5317
L11.1217 9.4107
" />
<path d="M11.1217 9.4107
L11.1822 9.3502
" />
<path d="M11.1822 9.3502
L11.3032 9.2898
" />
<path d="M11.3032 9.2898
L11.5451 9.2898
" />
<path d="M11.5451 9.2898
L11.6660 9.3502
" />
<path d="M12.8150 10.1364
L12.8150 9.4712
" />
<path d="M12.8150 9.4712
L12.7545 9.3502
" />
<path d="M12.7545 9.3502
L12.6336 9.2898
" />
<path d="M12.6336 9.2898
L12.3917 9.2898
" />
<path d="M12.3917 9.2898
L12.2707 9.3502
" />
<path d="M12.8150 10.0760
L12.6941 10.1364
" />
<path d="M12.6941 10.1364
L12.3917 10.1364
" />
<path d="M12.3917 10.1364
L12.2707 10.0760
" />
<path d="M12.2707 10.0760
L12.2103 9.9550
" />
<path d="M12.2103 9.9550
L12.2103 9.8340
" />
<path d="M12.2103 9.8340
L12.2707 9.7131
" />
<path d="M12.2707 9.7131
L12.3917 9.6526
" />
<path d="M12.3917 9.6526
L12.6941 9.6526
" />
<path d="M12.6941 9.6526
L12.8150 9.5921
" />
<path d="M13.9640 10.0760
L13.8431 10.1364
" />
<path d="M13.8431 10.1364
L13.6012 10.1364
" />
<path d="M13.6012 10.1364
L13.4802 10.0760
" />
<path d="M13.4802 10.0760
L13.4197 10.0155
" />
<path d="M13.4197 10.0155
L13.3593 9.8945
" />
<path d="M13.3593 9.8945
L13.3593 9.5317
" />
<path d="M13.3593 9.5317
L13.4197 9.4107
" />
<path d="M13.4197 9.4107
L13.4802 9.3502
" />
<path d="M13.4802 9.3502
L13.6012 9.2898
" />
<path d="M13.6012 9.2898
L13.8431 9.2898
" />
<path d="M13.8431 9.2898
L13.9640 9.3502
" />
<path d="M15.4759 9.2898
L15.4759 10.5598
" />
<path d="M15.4759 9.3502
L15.5969 9.2898
" />
<path d="M15.5969 9.2898
L15.8388 9.2898
" />
<path d="M15.8388 9.2898
L15.9597 9.3502
" />
<path d="M15.9597 9.3502
L16.0202 9.4107
" />
<path d="M16.0202 9.4107
L16.0807 9.5317
" />
<path d="M16.0807 9.5317
L16.0807 9.8945
" />
<path d="M16.0807 9.8945
L16.0202 10.0155
" />
<path d="M16.0202 10.0155
L15.9597 10.0760
" />
<path d="M15.9597 10.0760
L15.8388 10.1364
" />
<path d="M15.8388 10.1364
L15.5969 10.1364
" />
<path d="M15.5969 10.1364
L15.4759 10.0760
" />
<path d="M16.8064 10.1364
L16.6854 10.0760
" />
<path d="M16.6854 10.0760
L16.6249 10.0155
" />
<path d="M16.6249 10.0155
L16.5645 9.8945
" />
<path d="M16.5645 9.8945
L16.5645 9.5317
" />
<path d="M16.5645 9.5317
L16.6249 9.4107
" />
<path d="M16.6249 9.4107
L16.6854 9.3502
" />
<path d="M16.6854 9.3502
L16.8064 9.2898
" />
<path d="M16.8064 9.2898
L16.9878 9.2898
" />
<path d="M16.9878 9.2898
L17.1087 9.3502
" />
<path d="M17.1087 9.3502
L17.1692 9.4107
" />
<path d="M17.1692 9.4107
L17.2297 9.5317
" />
<path d="M17.2297 9.5317
L17.2297 9.8945
" />
<path d="M17.2297 9.8945
L17.1692 10.0155
" />
<path d="M17.1692 10.0155
L17.1087 10.0760
" />
<path d="M17.1087 10.0760
L16.9878 10.1364
" />
<path d="M16.9878 10.1364
L16.8064 10.1364
" />
<path d="M17.6530 9.2898
L17.8949 10.1364
" />
<path d="M17.8949 10.1364
L18.1368 9.5317
" />
<path d="M18.1368 9.5317
L18.3787 10.1364
" />
<path d="M18.3787 10.1364
L18.6206 9.2898
" />
<path d="M19.5882 10.0760
L19.4673 10.1364
" />
<path d="M19.4673 10.1364
L19.2254 10.1364
" />
<path d="M19.2254 10.1364
L19.1044 10.0760
" />
<path d="M19.1044 10.0760
L19.0440 9.9550
" />
<path d="M19.0440 9.9550
L19.0440 9.4712
" />
<path d="M19.0440 9.4712
L19.1044 9.3502
" />
<path d="M19.1044 9.3502
L19.2254 9.2898
" />
<path d="M19.2254 9.2898
L19.4673 9.2898
" />
<path d="M19.4673 9.2898
L19.5882 9.3502
" />
<path d="M19.5882 9.3502
L19.6487 9.4712
" />
<path d="M19.6487 9.4712
L19.6487 9.5921
" />
<path d="M19.6487 9.5921
L19.0440 9.7131
" />
<path d="M20.1930 10.1364
L20.1930 9.2898
" />
<path d="M20.1930 9.5317
L20.2535 9.4107
" />
<path d="M20.2535 9.4107
L20.3140 9.3502
" />
<path d="M20.3140 9.3502
L20.4349 9.2898
" />
<path d="M20.4349 9.2898
L20.5559 9.2898
" />
<path d="M22.6121 8.9269
L22.4911 8.8664
" />
<path d="M22.4911 8.8664
L22.3097 8.8664
" />
<path d="M22.3097 8.8664
L22.1283 8.9269
" />
<path d="M22.1283 8.9269
L22.0073 9.0479
" />
<path d="M22.0073 9.0479
L21.9468 9.1688
" />
<path d="M21.9468 9.1688
L21.8864 9.4107
" />
<path d="M21.8864 9.4107
L21.8864 9.5921
" />
<path d="M21.8864 9.5921
L21.9468 9.8340
" />
<path d="M21.9468 9.8340
L22.0073 9.9550
" />
<path d="M22.0073 9.9550
L22.1283 10.0760
" />
<path d="M22.1283 10.0760
L22.3097 10.1364
" />
<path d="M22.3097 10.1364
L22.4306 10.1364
" />
<path d="M22.4306 10.1364
L22.6121 10.0760
" />
<path d="M22.6121 10.0760
L22.6725 10.0155
" />
<path d="M22.6725 10.0155
L22.6725 9.5921
" />
<path d="M22.6725 9.5921
L22.4306 9.5921
" />
<path d="M23.7006 10.0760
L23.5797 10.1364
" />
<path d="M23.5797 10.1364
L23.3378 10.1364
" />
<path d="M23.3378 10.1364
L23.2168 10.0760
" />
<path d="M23.2168 10.0760
L23.1564 9.9550
" />
<path d="M23.1564 9.9550
L23.1564 9.4712
" />
<path d="M23.1564 9.4712
L23.2168 9.3502
" />
<path d="M23.2168 9.3502
L23.3378 9.2898
" />
<path d="M23.3378 9.2898
L23.5797 9.2898
" />
<path d="M23.5797 9.2898
L23.7006 9.3502
" />
<path d="M23.7006 9.3502
L23.7611 9.4712
" />
<path d="M23.7611 9.4712
L23.7611 9.5921
" />
<path d="M23.7611 9.5921
L23.1564 9.7131
" />
<path d="M24.3054 10.1364
L24.3054 9.2898
" />
<path d="M24.3054 9.5317
L24.3659 9.4107
" />
<path d="M24.3659 9.4107
L24.4264 9.3502
" />
<path d="M24.4264 9.3502
L24.5473 9.2898
" />
<path d="M24.5473 9.2898
L24.6683 9.2898
" />
<path d="M25.0916 10.1364
L25.0916 8.8664
" />
<path d="M25.0916 9.3502
L25.2126 9.2898
" />
<path d="M25.2126 9.2898
L25.4545 9.2898
" />
<path d="M25.4545 9.2898
L25.5754 9.3502
" />
<path d="M25.5754 9.3502
L25.6359 9.4107
" />
<path d="M25.6359 9.4107
L25.6964 9.5317
" />
<path d="M25.6964 9.5317
L25.6964 9.8945
" />
<path d="M25.6964 9.8945
L25.6359 10.0155
" />
<path d="M25.6359 10.0155
L25.5754 10.0760
" />
<path d="M25.5754 10.0760
L25.4545 10.1364
" />
<path d="M25.4545 10.1364
L25.2126 10.1364
" />
<path d="M25.2126 10.1364
L25.0916 10.0760
" />
<path d="M26.7244 10.0760
L26.6035 10.1364
" />
<path d="M26.6035 10.1364
L26.3616 10.1364
" />
<path d="M26.3616 10.1364
L26.2406 10.0760
" />
<path d="M26.2406 10.0760
L26.1802 9.9550
" />
<path d="M26.1802 9.9550
L26.1802 9.4712
" />
<path d="M26.1802 9.4712
L26.2406 9.3502
" />
<path d="M26.2406 9.3502
L26.3616 9.2898
" />
<path d="M26.3616 9.2898
L26.6035 9.2898
" />
<path d="M26.6035 9.2898
L26.7244 9.3502
" />
<path d="M26.7244 9.3502
L26.7849 9.4712
" />
<path d="M26.7849 9.4712
L26.7849 9.5921
" />
<path d="M26.7849 9.5921
L26.1802 9.7131
" />
<path d="M27.3292 10.1364
L27.3292 9.2898
" />
<path d="M27.3292 9.5317
L27.3897 9.4107
" />
<path d="M27.3897 9.4107
L27.4502 9.3502
" />
<path d="M27.4502 9.3502
L27.5711 9.2898
" />
<path d="M27.5711 9.2898
L27.6921 9.2898
" />
<path d="M29.0226 10.0760
L29.1435 10.1364
" />
<path d="M29.1435 10.1364
L29.3854 10.1364
" />
<path d="M29.3854 10.1364
L29.5064 10.0760
" />
<path d="M29.5064 10.0760
L29.5668 9.9550
" />
<path d="M29.5668 9.9550
L29.5668 9.8945
" />
<path d="M29.5668 9.8945
L29.5064 9.7736
" />
<path d="M29.5064 9.7736
L29.3854 9.7131
" />
<path d="M29.3854 9.7131
L29.2040 9.7131
" />
<path d="M29.2040 9.7131
L29.0830 9.6526
" />
<path d="M29.0830 9.6526
L29.0226 9.5317
" />
<path d="M29.0226 9.5317
L29.0226 9.4712
" />
<path d="M29.0226 9.4712
L29.0830 9.3502
" />
<path d="M29.0830 9.3502
L29.2040 9.2898
" />
<path d="M29.2040 9.2898
L29.3854 9.2898
" />
<path d="M29.3854 9.2898
L29.5064 9.3502
" />
<path d="M30.2926 10.1364
L30.1716 10.0760
" />
<path d="M30.1716 10.0760
L30.1111 10.0155
" />
<path d="M30.1111 10.0155
L30.0507 9.8945
" />
<path d="M30.0507 9.8945
L30.0507 9.5317
" />
<path d="M30.0507 9.5317
L30.1111 9.4107
" />
<path d="M30.1111 9.4107
L30.1716 9.3502
" />
<path d="M30.1716 9.3502
L30.2926 9.2898
" />
<path d="M30.2926 9.2898
L30.4740 9.2898
" />
<path d="M30.4740 9.2898
L30.5949 9.3502
" />
<path d="M30.5949 9.3502
L30.6554 9.4107
" />
<path d="M30.6554 9.4107
L30.7159 9.5317
" />
<path d="M30.7159 9.5317
L30.7159 9.8945
" />
<path d="M30.7159 9.8945
L30.6554 10.0155
" />
<path d="M30.6554 10.0155
L30.5949 10.0760
" />
<path d="M30.5949 10.0760
L30.4740 10.1364
" />
<path d="M30.4740 10.1364
L30.2926 10.1364
" />
<path d="M31.8044 10.0760
L31.6835 10.1364
" />
<path d="M31.6835 10.1364
L31.4416 10.1364
" />
<path d="M31.4416 10.1364
L31.3206 10.0760
" />
<path d="M31.3206 10.0760
L31.2601 10.0155
" />
<path d="M31.2601 10.0155
L31.1997 9.8945
" />
<path d="M31.1997 9.8945
L31.1997 9.5317
" />
<path d="M31.1997 9.5317
L31.2601 9.4107
" />
<path d="M31.2601 9.4107
L31.3206 9.3502
" />
<path d="M31.3206 9.3502
L31.4416 9.2898
" />
<path d="M31.4416 9.2898
L31.6835 9.2898
" />
<path d="M31.6835 9.2898
L31.8044 9.3502
" />
<path d="M32.3487 10.1364
L32.3487 8.8664
" />
<path d="M32.4697 9.6526
L32.8325 10.1364
" />
<path d="M32.8325 9.2898
L32.3487 9.7736
" />
<path d="M33.8606 10.0760
L33.7397 10.1364
" />
<path d="M33.7397 10.1364
L33.4978 10.1364
" />
<path d="M33.4978 10.1364
L33.3768 10.0760
" />
<path d="M33.3768 10.0760
L33.3164 9.9550
" />
<path d="M33.3164 9.9550
L33.3164 9.4712
" />
<path d="M33.3164 9.4712
L33.3768 9.3502
" />
<path d="M33.3768 9.3502
L33.4978 9.2898
" />
<path d="M33.4978 9.2898
L33.7397 9.2898
" />
<path d="M33.7397 9.2898
L33.8606 9.3502
" />
<path d="M33.8606 9.3502
L33.9211 9.4712
" />
<path d="M33.9211 9.4712
L33.9211 9.5921
" />
<path d="M33.9211 9.5921
L33.3164 9.7131
" />
<path d="M34.2840 9.2898
L34.7678 9.2898
" />
<path d="M34.4654 8.8664
L34.4654 9.9550
" />
<path d="M34.4654 9.9550
L34.5259 10.0760
" />
<path d="M34.5259 10.0760
L34.6469 10.1364
" />
<path d="M34.6469 10.1364
L34.7678 10.1364
" />
</g></g>
<g style="fill:none; 
stroke:#840000; stroke-width:0.1524; stroke-opacity:1; 
stroke-linecap:round; stroke-linejoin:round;">
<path d="M25.0615 5.4931
L21.2515 5.4931
" />
</g>
<g style="fill:none; 
stroke:#006464; stroke-width:0.1524; stroke-opacity:1; 
stroke-linecap:round; stroke-linejoin:round;">
<text x="25.5695" y="6.1281"
textLength="7.3998" font-size="1.6933" lengthAdjust="spacingAndGlyphs"
text-anchor="start" opacity="0">JD_PWR</text>
<g class="stroked-text"><desc>JD_PWR</desc>
<path d="M26.3349 4.8026
L26.3349 5.7098
" />
<path d="M26.3349 5.7098
L26.2744 5.8912
" />
<path d="M26.2744 5.8912
L26.1535 6.0122
" />
<path d="M26.1535 6.0122
L25.9720 6.0726
" />
<path d="M25.9720 6.0726
L25.8511 6.0726
" />
<path d="M26.9396 6.0726
L26.9396 4.8026
" />
<path d="M26.9396 4.8026
L27.2420 4.8026
" />
<path d="M27.2420 4.8026
L27.4234 4.8631
" />
<path d="M27.4234 4.8631
L27.5444 4.9841
" />
<path d="M27.5444 4.9841
L27.6049 5.1050
" />
<path d="M27.6049 5.1050
L27.6653 5.3469
" />
<path d="M27.6653 5.3469
L27.6653 5.5283
" />
<path d="M27.6653 5.5283
L27.6049 5.7702
" />
<path d="M27.6049 5.7702
L27.5444 5.8912
" />
<path d="M27.5444 5.8912
L27.4234 6.0122
" />
<path d="M27.4234 6.0122
L27.2420 6.0726
" />
<path d="M27.2420 6.0726
L26.9396 6.0726
" />
<path d="M27.9073 6.1936
L28.8749 6.1936
" />
<path d="M29.1772 6.0726
L29.1772 4.8026
" />
<path d="M29.1772 4.8026
L29.6610 4.8026
" />
<path d="M29.6610 4.8026
L29.7820 4.8631
" />
<path d="M29.7820 4.8631
L29.8425 4.9236
" />
<path d="M29.8425 4.9236
L29.9029 5.0445
" />
<path d="M29.9029 5.0445
L29.9029 5.2260
" />
<path d="M29.9029 5.2260
L29.8425 5.3469
" />
<path d="M29.8425 5.3469
L29.7820 5.4074
" />
<path d="M29.7820 5.4074
L29.6610 5.4679
" />
<path d="M29.6610 5.4679
L29.1772 5.4679
" />
<path d="M30.3263 4.8026
L30.6287 6.0726
" />
<path d="M30.6287 6.0726
L30.8706 5.1655
" />
<path d="M30.8706 5.1655
L31.1125 6.0726
" />
<path d="M31.1125 6.0726
L31.4149 4.8026
" />
<path d="M32.6243 6.0726
L32.2010 5.4679
" />
<path d="M31.8986 6.0726
L31.8986 4.8026
" />
<path d="M31.8986 4.8026
L32.3824 4.8026
" />
<path d="M32.3824 4.8026
L32.5034 4.8631
" />
<path d="M32.5034 4.8631
L32.5639 4.9236
" />
<path d="M32.5639 4.9236
L32.6243 5.0445
" />
<path d="M32.6243 5.0445
L32.6243 5.2260
" />
<path d="M32.6243 5.2260
L32.5639 5.3469
" />
<path d="M32.5639 5.3469
L32.5034 5.4074
" />
<path d="M32.5034 5.4074
L32.3824 5.4679
" />
<path d="M32.3824 5.4679
L31.8986 5.4679
" />
</g></g>
<g style="fill:none; 
stroke:#A90000; stroke-width:0.1524; stroke-opacity:1; 
stroke-linecap:round; stroke-linejoin:round;">
<text x="23.1565" y="5.2391"
textLength="1.4127" font-size="1.6933" lengthAdjust="spacingAndGlyphs"
text-anchor="middle" opacity="0">1</text>
<g class="stroked-text"><desc>1</desc>
<path d="M23.5194 5.0756
L22.7937 5.0756
" />
<path d="M23.1565 5.0756
L23.1565 3.8056
" />
<path d="M23.1565 3.8056
L23.0356 3.9871
" />
<path d="M23.0356 3.9871
L22.9146 4.1080
" />
<path d="M22.9146 4.1080
L22.7937 4.1685
" />
</g></g>
<g style="fill:none; 
stroke:#006464; stroke-width:0.1588; stroke-opacity:1; 
stroke-linecap:round; stroke-linejoin:round;">
<text x="21.2515" y="3.0802"
textLength="3.7905" font-size="1.6933" lengthAdjust="spacingAndGlyphs"
text-anchor="middle" opacity="0">GS?</text>
<g class="stroked-text"><desc>GS?</desc>
<path d="M20.4351 1.8149
L20.3141 1.7544
" />
<path d="M20.3141 1.7544
L20.1327 1.7544
" />
<path d="M20.1327 1.7544
L19.9513 1.8149
" />
<path d="M19.9513 1.8149
L19.8303 1.9359
" />
<path d="M19.8303 1.9359
L19.7698 2.0568
" />
<path d="M19.7698 2.0568
L19.7094 2.2987
" />
<path d="M19.7094 2.2987
L19.7094 2.4801
" />
<path d="M19.7094 2.4801
L19.7698 2.7220
" />
<path d="M19.7698 2.7220
L19.8303 2.8430
" />
<path d="M19.8303 2.8430
L19.9513 2.9640
" />
<path d="M19.9513 2.9640
L20.1327 3.0244
" />
<path d="M20.1327 3.0244
L20.2536 3.0244
" />
<path d="M20.2536 3.0244
L20.4351 2.9640
" />
<path d="M20.4351 2.9640
L20.4955 2.9035
" />
<path d="M20.4955 2.9035
L20.4955 2.4801
" />
<path d="M20.4955 2.4801
L20.2536 2.4801
" />
<path d="M20.9794 2.9640
L21.1608 3.0244
" />
<path d="M21.1608 3.0244
L21.4632 3.0244
" />
<path d="M21.4632 3.0244
L21.5841 2.9640
" />
<path d="M21.5841 2.9640
L21.6446 2.9035
" />
<path d="M21.6446 2.9035
L21.7051 2.7825
" />
<path d="M21.7051 2.7825
L21.7051 2.6616
" />
<path d="M21.7051 2.6616
L21.6446 2.5406
" />
<path d="M21.6446 2.5406
L21.5841 2.4801
" />
<path d="M21.5841 2.4801
L21.4632 2.4197
" />
<path d="M21.4632 2.4197
L21.2213 2.3592
" />
<path d="M21.2213 2.3592
L21.1003 2.2987
" />
<path d="M21.1003 2.2987
L21.0398 2.2382
" />
<path d="M21.0398 2.2382
L20.9794 2.1173
" />
<path d="M20.9794 2.1173
L20.9794 1.9963
" />
<path d="M20.9794 1.9963
L21.0398 1.8754
" />
<path d="M21.0398 1.8754
L21.1003 1.8149
" />
<path d="M21.1003 1.8149
L21.2213 1.7544
" />
<path d="M21.2213 1.7544
L21.5236 1.7544
" />
<path d="M21.5236 1.7544
L21.7051 1.8149
" />
<path d="M22.4308 2.9035
L22.4912 2.9640
" />
<path d="M22.4912 2.9640
L22.4308 3.0244
" />
<path d="M22.4308 3.0244
L22.3703 2.9640
" />
<path d="M22.3703 2.9640
L22.4308 2.9035
" />
<path d="M22.4308 2.9035
L22.4308 3.0244
" />
<path d="M22.1889 1.8149
L22.3098 1.7544
" />
<path d="M22.3098 1.7544
L22.6122 1.7544
" />
<path d="M22.6122 1.7544
L22.7331 1.8149
" />
<path d="M22.7331 1.8149
L22.7936 1.9359
" />
<path d="M22.7936 1.9359
L22.7936 2.0568
" />
<path d="M22.7936 2.0568
L22.7331 2.1778
" />
<path d="M22.7331 2.1778
L22.6727 2.2382
" />
<path d="M22.6727 2.2382
L22.5517 2.2987
" />
<path d="M22.5517 2.2987
L22.4912 2.3592
" />
<path d="M22.4912 2.3592
L22.4308 2.4801
" />
<path d="M22.4308 2.4801
L22.4308 2.5406
" />
</g></g>
<g style="fill:none; 
stroke:#840084; stroke-width:0.1588; stroke-opacity:1; 
stroke-linecap:round; stroke-linejoin:round;">
<text x="21.2515" y="12.7322"
textLength="22.9008" font-size="1.6933" lengthAdjust="spacingAndGlyphs"
text-anchor="middle" opacity="0">Jacdac_Sockets:JD_PWR</text>
<g class="stroked-text"><desc>Jacdac_Sockets:JD_PWR</desc>
<path d="M10.5775 11.4064
L10.5775 12.3136
" />
<path d="M10.5775 12.3136
L10.5170 12.4950
" />
<path d="M10.5170 12.4950
L10.3961 12.6160
" />
<path d="M10.3961 12.6160
L10.2146 12.6764
" />
<path d="M10.2146 12.6764
L10.0937 12.6764
" />
<path d="M11.7265 12.6764
L11.7265 12.0112
" />
<path d="M11.7265 12.0112
L11.6660 11.8902
" />
<path d="M11.6660 11.8902
L11.5451 11.8298
" />
<path d="M11.5451 11.8298
L11.3032 11.8298
" />
<path d="M11.3032 11.8298
L11.1822 11.8902
" />
<path d="M11.7265 12.6160
L11.6056 12.6764
" />
<path d="M11.6056 12.6764
L11.3032 12.6764
" />
<path d="M11.3032 12.6764
L11.1822 12.6160
" />
<path d="M11.1822 12.6160
L11.1218 12.4950
" />
<path d="M11.1218 12.4950
L11.1218 12.3740
" />
<path d="M11.1218 12.3740
L11.1822 12.2531
" />
<path d="M11.1822 12.2531
L11.3032 12.1926
" />
<path d="M11.3032 12.1926
L11.6056 12.1926
" />
<path d="M11.6056 12.1926
L11.7265 12.1321
" />
<path d="M12.8755 12.6160
L12.7546 12.6764
" />
<path d="M12.7546 12.6764
L12.5127 12.6764
" />
<path d="M12.5127 12.6764
L12.3917 12.6160
" />
<path d="M12.3917 12.6160
L12.3312 12.5555
" />
<path d="M12.3312 12.5555
L12.2708 12.4345
" />
<path d="M12.2708 12.4345
L12.2708 12.0717
" />
<path d="M12.2708 12.0717
L12.3312 11.9507
" />
<path d="M12.3312 11.9507
L12.3917 11.8902
" />
<path d="M12.3917 11.8902
L12.5127 11.8298
" />
<path d="M12.5127 11.8298
L12.7546 11.8298
" />
<path d="M12.7546 11.8298
L12.8755 11.8902
" />
<path d="M13.9641 12.6764
L13.9641 11.4064
" />
<path d="M13.9641 12.6160
L13.8432 12.6764
" />
<path d="M13.8432 12.6764
L13.6013 12.6764
" />
<path d="M13.6013 12.6764
L13.4803 12.6160
" />
<path d="M13.4803 12.6160
L13.4198 12.5555
" />
<path d="M13.4198 12.5555
L13.3594 12.4345
" />
<path d="M13.3594 12.4345
L13.3594 12.0717
" />
<path d="M13.3594 12.0717
L13.4198 11.9507
" />
<path d="M13.4198 11.9507
L13.4803 11.8902
" />
<path d="M13.4803 11.8902
L13.6013 11.8298
" />
<path d="M13.6013 11.8298
L13.8432 11.8298
" />
<path d="M13.8432 11.8298
L13.9641 11.8902
" />
<path d="M15.1131 12.6764
L15.1131 12.0112
" />
<path d="M15.1131 12.0112
L15.0526 11.8902
" />
<path d="M15.0526 11.8902
L14.9317 11.8298
" />
<path d="M14.9317 11.8298
L14.6898 11.8298
" />
<path d="M14.6898 11.8298
L14.5688 11.8902
" />
<path d="M15.1131 12.6160
L14.9922 12.6764
" />
<path d="M14.9922 12.6764
L14.6898 12.6764
" />
<path d="M14.6898 12.6764
L14.5688 12.6160
" />
<path d="M14.5688 12.6160
L14.5084 12.4950
" />
<path d="M14.5084 12.4950
L14.5084 12.3740
" />
<path d="M14.5084 12.3740
L14.5688 12.2531
" />
<path d="M14.5688 12.2531
L14.6898 12.1926
" />
<path d="M14.6898 12.1926
L14.9922 12.1926
" />
<path d="M14.9922 12.1926
L15.1131 12.1321
" />
<path d="M16.2621 12.6160
L16.1412 12.6764
" />
<path d="M16.1412 12.6764
L15.8993 12.6764
" />
<path d="M15.8993 12.6764
L15.7783 12.6160
" />
<path d="M15.7783 12.6160
L15.7178 12.5555
" />
<path d="M15.7178 12.5555
L15.6574 12.4345
" />
<path d="M15.6574 12.4345
L15.6574 12.0717
" />
<path d="M15.6574 12.0717
L15.7178 11.9507
" />
<path d="M15.7178 11.9507
L15.7783 11.8902
" />
<path d="M15.7783 11.8902
L15.8993 11.8298
" />
<path d="M15.8993 11.8298
L16.1412 11.8298
" />
<path d="M16.1412 11.8298
L16.2621 11.8902
" />
<path d="M16.5041 12.7974
L17.4717 12.7974
" />
<path d="M17.7136 12.6160
L17.8950 12.6764
" />
<path d="M17.8950 12.6764
L18.1974 12.6764
" />
<path d="M18.1974 12.6764
L18.3183 12.6160
" />
<path d="M18.3183 12.6160
L18.3788 12.5555
" />
<path d="M18.3788 12.5555
L18.4393 12.4345
" />
<path d="M18.4393 12.4345
L18.4393 12.3136
" />
<path d="M18.4393 12.3136
L18.3788 12.1926
" />
<path d="M18.3788 12.1926
L18.3183 12.1321
" />
<path d="M18.3183 12.1321
L18.1974 12.0717
" />
<path d="M18.1974 12.0717
L17.9555 12.0112
" />
<path d="M17.9555 12.0112
L17.8345 11.9507
" />
<path d="M17.8345 11.9507
L17.7740 11.8902
" />
<path d="M17.7740 11.8902
L17.7136 11.7693
" />
<path d="M17.7136 11.7693
L17.7136 11.6483
" />
<path d="M17.7136 11.6483
L17.7740 11.5274
" />
<path d="M17.7740 11.5274
L17.8345 11.4669
" />
<path d="M17.8345 11.4669
L17.9555 11.4064
" />
<path d="M17.9555 11.4064
L18.2578 11.4064
" />
<path d="M18.2578 11.4064
L18.4393 11.4669
" />
<path d="M19.1650 12.6764
L19.0440 12.6160
" />
<path d="M19.0440 12.6160
L18.9835 12.5555
" />
<path d="M18.9835 12.5555
L18.9231 12.4345
" />
<path d="M18.9231 12.4345
L18.9231 12.0717
" />
<path d="M18.9231 12.0717
L18.9835 11.9507
" />
<path d="M18.9835 11.9507
L19.0440 11.8902
" />
<path d="M19.0440 11.8902
L19.1650 11.8298
" />
<path d="M19.1650 11.8298
L19.3464 11.8298
" />
<path d="M19.3464 11.8298
L19.4673 11.8902
" />
<path d="M19.4673 11.8902
L19.5278 11.9507
" />
<path d="M19.5278 11.9507
L19.5883 12.0717
" />
<path d="M19.5883 12.0717
L19.5883 12.4345
" />
<path d="M19.5883 12.4345
L19.5278 12.5555
" />
<path d="M19.5278 12.5555
L19.4673 12.6160
" />
<path d="M19.4673 12.6160
L19.3464 12.6764
" />
<path d="M19.3464 12.6764
L19.1650 12.6764
" />
<path d="M20.6768 12.6160
L20.5559 12.6764
" />
<path d="M20.5559 12.6764
L20.3140 12.6764
" />
<path d="M20.3140 12.6764
L20.1930 12.6160
" />
<path d="M20.1930 12.6160
L20.1325 12.5555
" />
<path d="M20.1325 12.5555
L20.0721 12.4345
" />
<path d="M20.0721 12.4345
L20.0721 12.0717
" />
<path d="M20.0721 12.0717
L20.1325 11.9507
" />
<path d="M20.1325 11.9507
L20.1930 11.8902
" />
<path d="M20.1930 11.8902
L20.3140 11.8298
" />
<path d="M20.3140 11.8298
L20.5559 11.8298
" />
<path d="M20.5559 11.8298
L20.6768 11.8902
" />
<path d="M21.2211 12.6764
L21.2211 11.4064
" />
<path d="M21.3421 12.1926
L21.7049 12.6764
" />
<path d="M21.7049 11.8298
L21.2211 12.3136
" />
<path d="M22.7330 12.6160
L22.6121 12.6764
" />
<path d="M22.6121 12.6764
L22.3702 12.6764
" />
<path d="M22.3702 12.6764
L22.2492 12.6160
" />
<path d="M22.2492 12.6160
L22.1888 12.4950
" />
<path d="M22.1888 12.4950
L22.1888 12.0112
" />
<path d="M22.1888 12.0112
L22.2492 11.8902
" />
<path d="M22.2492 11.8902
L22.3702 11.8298
" />
<path d="M22.3702 11.8298
L22.6121 11.8298
" />
<path d="M22.6121 11.8298
L22.7330 11.8902
" />
<path d="M22.7330 11.8902
L22.7935 12.0112
" />
<path d="M22.7935 12.0112
L22.7935 12.1321
" />
<path d="M22.7935 12.1321
L22.1888 12.2531
" />
<path d="M23.1564 11.8298
L23.6402 11.8298
" />
<path d="M23.3378 11.4064
L23.3378 12.4950
" />
<path d="M23.3378 12.4950
L23.3983 12.6160
" />
<path d="M23.3983 12.6160
L23.5193 12.6764
" />
<path d="M23.5193 12.6764
L23.6402 12.6764
" />
<path d="M24.0031 12.6160
L24.1240 12.6764
" />
<path d="M24.1240 12.6764
L24.3659 12.6764
" />
<path d="M24.3659 12.6764
L24.4869 12.6160
" />
<path d="M24.4869 12.6160
L24.5473 12.4950
" />
<path d="M24.5473 12.4950
L24.5473 12.4345
" />
<path d="M24.5473 12.4345
L24.4869 12.3136
" />
<path d="M24.4869 12.3136
L24.3659 12.2531
" />
<path d="M24.3659 12.2531
L24.1845 12.2531
" />
<path d="M24.1845 12.2531
L24.0635 12.1926
" />
<path d="M24.0635 12.1926
L24.0031 12.0717
" />
<path d="M24.0031 12.0717
L24.0031 12.0112
" />
<path d="M24.0031 12.0112
L24.0635 11.8902
" />
<path d="M24.0635 11.8902
L24.1845 11.8298
" />
<path d="M24.1845 11.8298
L24.3659 11.8298
" />
<path d="M24.3659 11.8298
L24.4869 11.8902
" />
<path d="M25.0916 12.5555
L25.1521 12.6160
" />
<path d="M25.1521 12.6160
L25.0916 12.6764
" />
<path d="M25.0916 12.6764
L25.0312 12.6160
" />
<path d="M25.0312 12.6160
L25.0916 12.5555
" />
<path d="M25.0916 12.5555
L25.0916 12.6764
" />
<path d="M25.0916 11.8902
L25.1521 11.9507
" />
<path d="M25.1521 11.9507
L25.0916 12.0112
" />
<path d="M25.0916 12.0112
L25.0312 11.9507
" />
<path d="M25.0312 11.9507
L25.0916 11.8902
" />
<path d="M25.0916 11.8902
L25.0916 12.0112
" />
<path d="M26.0593 11.4064
L26.0593 12.3136
" />
<path d="M26.0593 12.3136
L25.9988 12.4950
" />
<path d="M25.9988 12.4950
L25.8779 12.6160
" />
<path d="M25.8779 12.6160
L25.6964 12.6764
" />
<path d="M25.6964 12.6764
L25.5755 12.6764
" />
<path d="M26.6640 12.6764
L26.6640 11.4064
" />
<path d="M26.6640 11.4064
L26.9664 11.4064
" />
<path d="M26.9664 11.4064
L27.1478 11.4669
" />
<path d="M27.1478 11.4669
L27.2688 11.5879
" />
<path d="M27.2688 11.5879
L27.3293 11.7088
" />
<path d="M27.3293 11.7088
L27.3897 11.9507
" />
<path d="M27.3897 11.9507
L27.3897 12.1321
" />
<path d="M27.3897 12.1321
L27.3293 12.3740
" />
<path d="M27.3293 12.3740
L27.2688 12.4950
" />
<path d="M27.2688 12.4950
L27.1478 12.6160
" />
<path d="M27.1478 12.6160
L26.9664 12.6764
" />
<path d="M26.9664 12.6764
L26.6640 12.6764
" />
<path d="M27.6317 12.7974
L28.5993 12.7974
" />
<path d="M28.9016 12.6764
L28.9016 11.4064
" />
<path d="M28.9016 11.4064
L29.3854 11.4064
" />
<path d="M29.3854 11.4064
L29.5064 11.4669
" />
<path d="M29.5064 11.4669
L29.5669 11.5274
" />
<path d="M29.5669 11.5274
L29.6273 11.6483
" />
<path d="M29.6273 11.6483
L29.6273 11.8298
" />
<path d="M29.6273 11.8298
L29.5669 11.9507
" />
<path d="M29.5669 11.9507
L29.5064 12.0112
" />
<path d="M29.5064 12.0112
L29.3854 12.0717
" />
<path d="M29.3854 12.0717
L28.9016 12.0717
" />
<path d="M30.0507 11.4064
L30.3531 12.6764
" />
<path d="M30.3531 12.6764
L30.5950 11.7693
" />
<path d="M30.5950 11.7693
L30.8369 12.6764
" />
<path d="M30.8369 12.6764
L31.1393 11.4064
" />
<path d="M32.3487 12.6764
L31.9254 12.0717
" />
<path d="M31.6230 12.6764
L31.6230 11.4064
" />
<path d="M31.6230 11.4064
L32.1068 11.4064
" />
<path d="M32.1068 11.4064
L32.2278 11.4669
" />
<path d="M32.2278 11.4669
L32.2883 11.5274
" />
<path d="M32.2883 11.5274
L32.3487 11.6483
" />
<path d="M32.3487 11.6483
L32.3487 11.8298
" />
<path d="M32.3487 11.8298
L32.2883 11.9507
" />
<path d="M32.2883 11.9507
L32.2278 12.0112
" />
<path d="M32.2278 12.0112
L32.1068 12.0717
" />
<path d="M32.1068 12.0717
L31.6230 12.0717
" />
</g><text x="21.2515" y="15.2722"
textLength="35.4192" font-size="1.6933" lengthAdjust="spacingAndGlyphs"
text-anchor="middle" opacity="0">Gerber socket for Jacdac power bus</text>
<g class="stroked-text"><desc>Gerber socket for Jacdac power bus</desc>
<path d="M4.6207 14.0069
L4.4997 13.9464
" />
<path d="M4.4997 13.9464
L4.3183 13.9464
" />
<path d="M4.3183 13.9464
L4.1369 14.0069
" />
<path d="M4.1369 14.0069
L4.0159 14.1279
" />
<path d="M4.0159 14.1279
L3.9554 14.2488
" />
<path d="M3.9554 14.2488
L3.8950 14.4907
" />
<path d="M3.8950 14.4907
L3.8950 14.6721
" />
<path d="M3.8950 14.6721
L3.9554 14.9140
" />
<path d="M3.9554 14.9140
L4.0159 15.0350
" />
<path d="M4.0159 15.0350
L4.1369 15.1560
" />
<path d="M4.1369 15.1560
L4.3183 15.2164
" />
<path d="M4.3183 15.2164
L4.4392 15.2164
" />
<path d="M4.4392 15.2164
L4.6207 15.1560
" />
<path d="M4.6207 15.1560
L4.6811 15.0955
" />
<path d="M4.6811 15.0955
L4.6811 14.6721
" />
<path d="M4.6811 14.6721
L4.4392 14.6721
" />
<path d="M5.7092 15.1560
L5.5883 15.2164
" />
<path d="M5.5883 15.2164
L5.3464 15.2164
" />
<path d="M5.3464 15.2164
L5.2254 15.1560
" />
<path d="M5.2254 15.1560
L5.1650 15.0350
" />
<path d="M5.1650 15.0350
L5.1650 14.5512
" />
<path d="M5.1650 14.5512
L5.2254 14.4302
" />
<path d="M5.2254 14.4302
L5.3464 14.3698
" />
<path d="M5.3464 14.3698
L5.5883 14.3698
" />
<path d="M5.5883 14.3698
L5.7092 14.4302
" />
<path d="M5.7092 14.4302
L5.7697 14.5512
" />
<path d="M5.7697 14.5512
L5.7697 14.6721
" />
<path d="M5.7697 14.6721
L5.1650 14.7931
" />
<path d="M6.3140 15.2164
L6.3140 14.3698
" />
<path d="M6.3140 14.6117
L6.3745 14.4907
" />
<path d="M6.3745 14.4907
L6.4350 14.4302
" />
<path d="M6.4350 14.4302
L6.5559 14.3698
" />
<path d="M6.5559 14.3698
L6.6769 14.3698
" />
<path d="M7.1002 15.2164
L7.1002 13.9464
" />
<path d="M7.1002 14.4302
L7.2212 14.3698
" />
<path d="M7.2212 14.3698
L7.4631 14.3698
" />
<path d="M7.4631 14.3698
L7.5840 14.4302
" />
<path d="M7.5840 14.4302
L7.6445 14.4907
" />
<path d="M7.6445 14.4907
L7.7050 14.6117
" />
<path d="M7.7050 14.6117
L7.7050 14.9745
" />
<path d="M7.7050 14.9745
L7.6445 15.0955
" />
<path d="M7.6445 15.0955
L7.5840 15.1560
" />
<path d="M7.5840 15.1560
L7.4631 15.2164
" />
<path d="M7.4631 15.2164
L7.2212 15.2164
" />
<path d="M7.2212 15.2164
L7.1002 15.1560
" />
<path d="M8.7330 15.1560
L8.6121 15.2164
" />
<path d="M8.6121 15.2164
L8.3702 15.2164
" />
<path d="M8.3702 15.2164
L8.2492 15.1560
" />
<path d="M8.2492 15.1560
L8.1888 15.0350
" />
<path d="M8.1888 15.0350
L8.1888 14.5512
" />
<path d="M8.1888 14.5512
L8.2492 14.4302
" />
<path d="M8.2492 14.4302
L8.3702 14.3698
" />
<path d="M8.3702 14.3698
L8.6121 14.3698
" />
<path d="M8.6121 14.3698
L8.7330 14.4302
" />
<path d="M8.7330 14.4302
L8.7935 14.5512
" />
<path d="M8.7935 14.5512
L8.7935 14.6721
" />
<path d="M8.7935 14.6721
L8.1888 14.7931
" />
<path d="M9.3378 15.2164
L9.3378 14.3698
" />
<path d="M9.3378 14.6117
L9.3983 14.4907
" />
<path d="M9.3983 14.4907
L9.4588 14.4302
" />
<path d="M9.4588 14.4302
L9.5797 14.3698
" />
<path d="M9.5797 14.3698
L9.7007 14.3698
" />
<path d="M11.0312 15.1560
L11.1521 15.2164
" />
<path d="M11.1521 15.2164
L11.3940 15.2164
" />
<path d="M11.3940 15.2164
L11.5150 15.1560
" />
<path d="M11.5150 15.1560
L11.5754 15.0350
" />
<path d="M11.5754 15.0350
L11.5754 14.9745
" />
<path d="M11.5754 14.9745
L11.5150 14.8536
" />
<path d="M11.5150 14.8536
L11.3940 14.7931
" />
<path d="M11.3940 14.7931
L11.2126 14.7931
" />
<path d="M11.2126 14.7931
L11.0916 14.7326
" />
<path d="M11.0916 14.7326
L11.0312 14.6117
" />
<path d="M11.0312 14.6117
L11.0312 14.5512
" />
<path d="M11.0312 14.5512
L11.0916 14.4302
" />
<path d="M11.0916 14.4302
L11.2126 14.3698
" />
<path d="M11.2126 14.3698
L11.3940 14.3698
" />
<path d="M11.3940 14.3698
L11.5150 14.4302
" />
<path d="M12.3012 15.2164
L12.1802 15.1560
" />
<path d="M12.1802 15.1560
L12.1197 15.0955
" />
<path d="M12.1197 15.0955
L12.0593 14.9745
" />
<path d="M12.0593 14.9745
L12.0593 14.6117
" />
<path d="M12.0593 14.6117
L12.1197 14.4907
" />
<path d="M12.1197 14.4907
L12.1802 14.4302
" />
<path d="M12.1802 14.4302
L12.3012 14.3698
" />
<path d="M12.3012 14.3698
L12.4826 14.3698
" />
<path d="M12.4826 14.3698
L12.6035 14.4302
" />
<path d="M12.6035 14.4302
L12.6640 14.4907
" />
<path d="M12.6640 14.4907
L12.7245 14.6117
" />
<path d="M12.7245 14.6117
L12.7245 14.9745
" />
<path d="M12.7245 14.9745
L12.6640 15.0955
" />
<path d="M12.6640 15.0955
L12.6035 15.1560
" />
<path d="M12.6035 15.1560
L12.4826 15.2164
" />
<path d="M12.4826 15.2164
L12.3012 15.2164
" />
<path d="M13.8130 15.1560
L13.6921 15.2164
" />
<path d="M13.6921 15.2164
L13.4502 15.2164
" />
<path d="M13.4502 15.2164
L13.3292 15.1560
" />
<path d="M13.3292 15.1560
L13.2687 15.0955
" />
<path d="M13.2687 15.0955
L13.2083 14.9745
" />
<path d="M13.2083 14.9745
L13.2083 14.6117
" />
<path d="M13.2083 14.6117
L13.2687 14.4907
" />
<path d="M13.2687 14.4907
L13.3292 14.4302
" />
<path d="M13.3292 14.4302
L13.4502 14.3698
" />
<path d="M13.4502 14.3698
L13.6921 14.3698
" />
<path d="M13.6921 14.3698
L13.8130 14.4302
" />
<path d="M14.3573 15.2164
L14.3573 13.9464
" />
<path d="M14.4783 14.7326
L14.8411 15.2164
" />
<path d="M14.8411 14.3698
L14.3573 14.8536
" />
<path d="M15.8692 15.1560
L15.7483 15.2164
" />
<path d="M15.7483 15.2164
L15.5064 15.2164
" />
<path d="M15.5064 15.2164
L15.3854 15.1560
" />
<path d="M15.3854 15.1560
L15.3250 15.0350
" />
<path d="M15.3250 15.0350
L15.3250 14.5512
" />
<path d="M15.3250 14.5512
L15.3854 14.4302
" />
<path d="M15.3854 14.4302
L15.5064 14.3698
" />
<path d="M15.5064 14.3698
L15.7483 14.3698
" />
<path d="M15.7483 14.3698
L15.8692 14.4302
" />
<path d="M15.8692 14.4302
L15.9297 14.5512
" />
<path d="M15.9297 14.5512
L15.9297 14.6721
" />
<path d="M15.9297 14.6721
L15.3250 14.7931
" />
<path d="M16.2926 14.3698
L16.7764 14.3698
" />
<path d="M16.4740 13.9464
L16.4740 15.0350
" />
<path d="M16.4740 15.0350
L16.5345 15.1560
" />
<path d="M16.5345 15.1560
L16.6555 15.2164
" />
<path d="M16.6555 15.2164
L16.7764 15.2164
" />
<path d="M17.9859 14.3698
L18.4697 14.3698
" />
<path d="M18.1673 15.2164
L18.1673 14.1279
" />
<path d="M18.1673 14.1279
L18.2278 14.0069
" />
<path d="M18.2278 14.0069
L18.3488 13.9464
" />
<path d="M18.3488 13.9464
L18.4697 13.9464
" />
<path d="M19.0745 15.2164
L18.9535 15.1560
" />
<path d="M18.9535 15.1560
L18.8930 15.0955
" />
<path d="M18.8930 15.0955
L18.8326 14.9745
" />
<path d="M18.8326 14.9745
L18.8326 14.6117
" />
<path d="M18.8326 14.6117
L18.8930 14.4907
" />
<path d="M18.8930 14.4907
L18.9535 14.4302
" />
<path d="M18.9535 14.4302
L19.0745 14.3698
" />
<path d="M19.0745 14.3698
L19.2559 14.3698
" />
<path d="M19.2559 14.3698
L19.3768 14.4302
" />
<path d="M19.3768 14.4302
L19.4373 14.4907
" />
<path d="M19.4373 14.4907
L19.4978 14.6117
" />
<path d="M19.4978 14.6117
L19.4978 14.9745
" />
<path d="M19.4978 14.9745
L19.4373 15.0955
" />
<path d="M19.4373 15.0955
L19.3768 15.1560
" />
<path d="M19.3768 15.1560
L19.2559 15.2164
" />
<path d="M19.2559 15.2164
L19.0745 15.2164
" />
<path d="M20.0420 15.2164
L20.0420 14.3698
" />
<path d="M20.0420 14.6117
L20.1025 14.4907
" />
<path d="M20.1025 14.4907
L20.1630 14.4302
" />
<path d="M20.1630 14.4302
L20.2839 14.3698
" />
<path d="M20.2839 14.3698
L20.4049 14.3698
" />
<path d="M22.1587 13.9464
L22.1587 14.8536
" />
<path d="M22.1587 14.8536
L22.0982 15.0350
" />
<path d="M22.0982 15.0350
L21.9773 15.1560
" />
<path d="M21.9773 15.1560
L21.7958 15.2164
" />
<path d="M21.7958 15.2164
L21.6749 15.2164
" />
<path d="M23.3077 15.2164
L23.3077 14.5512
" />
<path d="M23.3077 14.5512
L23.2472 14.4302
" />
<path d="M23.2472 14.4302
L23.1263 14.3698
" />
<path d="M23.1263 14.3698
L22.8844 14.3698
" />
<path d="M22.8844 14.3698
L22.7634 14.4302
" />
<path d="M23.3077 15.1560
L23.1868 15.2164
" />
<path d="M23.1868 15.2164
L22.8844 15.2164
" />
<path d="M22.8844 15.2164
L22.7634 15.1560
" />
<path d="M22.7634 15.1560
L22.7030 15.0350
" />
<path d="M22.7030 15.0350
L22.7030 14.9140
" />
<path d="M22.7030 14.9140
L22.7634 14.7931
" />
<path d="M22.7634 14.7931
L22.8844 14.7326
" />
<path d="M22.8844 14.7326
L23.1868 14.7326
" />
<path d="M23.1868 14.7326
L23.3077 14.6721
" />
<path d="M24.4567 15.1560
L24.3358 15.2164
" />
<path d="M24.3358 15.2164
L24.0939 15.2164
" />
<path d="M24.0939 15.2164
L23.9729 15.1560
" />
<path d="M23.9729 15.1560
L23.9124 15.0955
" />
<path d="M23.9124 15.0955
L23.8520 14.9745
" />
<path d="M23.8520 14.9745
L23.8520 14.6117
" />
<path d="M23.8520 14.6117
L23.9124 14.4907
" />
<path d="M23.9124 14.4907
L23.9729 14.4302
" />
<path d="M23.9729 14.4302
L24.0939 14.3698
" />
<path d="M24.0939 14.3698
L24.3358 14.3698
" />
<path d="M24.3358 14.3698
L24.4567 14.4302
" />
<path d="M25.5453 15.2164
L25.5453 13.9464
" />
<path d="M25.5453 15.1560
L25.4244 15.2164
" />
<path d="M25.4244 15.2164
L25.1825 15.2164
" />
<path d="M25.1825 15.2164
L25.0615 15.1560
" />
<path d="M25.0615 15.1560
L25.0010 15.0955
" />
<path d="M25.0010 15.0955
L24.9406 14.9745
" />
<path d="M24.9406 14.9745
L24.9406 14.6117
" />
<path d="M24.9406 14.6117
L25.0010 14.4907
" />
<path d="M25.0010 14.4907
L25.0615 14.4302
" />
<path d="M25.0615 14.4302
L25.1825 14.3698
" />
<path d="M25.1825 14.3698
L25.4244 14.3698
" />
<path d="M25.4244 14.3698
L25.5453 14.4302
" />
<path d="M26.6943 15.2164
L26.6943 14.5512
" />
<path d="M26.6943 14.5512
L26.6338 14.4302
" />
<path d="M26.6338 14.4302
L26.5129 14.3698
" />
<path d="M26.5129 14.3698
L26.2710 14.3698
" />
<path d="M26.2710 14.3698
L26.1500 14.4302
" />
<path d="M26.6943 15.1560
L26.5734 15.2164
" />
<path d="M26.5734 15.2164
L26.2710 15.2164
" />
<path d="M26.2710 15.2164
L26.1500 15.1560
" />
<path d="M26.1500 15.1560
L26.0896 15.0350
" />
<path d="M26.0896 15.0350
L26.0896 14.9140
" />
<path d="M26.0896 14.9140
L26.1500 14.7931
" />
<path d="M26.1500 14.7931
L26.2710 14.7326
" />
<path d="M26.2710 14.7326
L26.5734 14.7326
" />
<path d="M26.5734 14.7326
L26.6943 14.6721
" />
<path d="M27.8433 15.1560
L27.7224 15.2164
" />
<path d="M27.7224 15.2164
L27.4805 15.2164
" />
<path d="M27.4805 15.2164
L27.3595 15.1560
" />
<path d="M27.3595 15.1560
L27.2990 15.0955
" />
<path d="M27.2990 15.0955
L27.2386 14.9745
" />
<path d="M27.2386 14.9745
L27.2386 14.6117
" />
<path d="M27.2386 14.6117
L27.2990 14.4907
" />
<path d="M27.2990 14.4907
L27.3595 14.4302
" />
<path d="M27.3595 14.4302
L27.4805 14.3698
" />
<path d="M27.4805 14.3698
L27.7224 14.3698
" />
<path d="M27.7224 14.3698
L27.8433 14.4302
" />
<path d="M29.3552 14.3698
L29.3552 15.6398
" />
<path d="M29.3552 14.4302
L29.4762 14.3698
" />
<path d="M29.4762 14.3698
L29.7181 14.3698
" />
<path d="M29.7181 14.3698
L29.8390 14.4302
" />
<path d="M29.8390 14.4302
L29.8995 14.4907
" />
<path d="M29.8995 14.4907
L29.9600 14.6117
" />
<path d="M29.9600 14.6117
L29.9600 14.9745
" />
<path d="M29.9600 14.9745
L29.8995 15.0955
" />
<path d="M29.8995 15.0955
L29.8390 15.1560
" />
<path d="M29.8390 15.1560
L29.7181 15.2164
" />
<path d="M29.7181 15.2164
L29.4762 15.2164
" />
<path d="M29.4762 15.2164
L29.3552 15.1560
" />
<path d="M30.6857 15.2164
L30.5647 15.1560
" />
<path d="M30.5647 15.1560
L30.5042 15.0955
" />
<path d="M30.5042 15.0955
L30.4438 14.9745
" />
<path d="M30.4438 14.9745
L30.4438 14.6117
" />
<path d="M30.4438 14.6117
L30.5042 14.4907
" />
<path d="M30.5042 14.4907
L30.5647 14.4302
" />
<path d="M30.5647 14.4302
L30.6857 14.3698
" />
<path d="M30.6857 14.3698
L30.8671 14.3698
" />
<path d="M30.8671 14.3698
L30.9880 14.4302
" />
<path d="M30.9880 14.4302
L31.0485 14.4907
" />
<path d="M31.0485 14.4907
L31.1090 14.6117
" />
<path d="M31.1090 14.6117
L31.1090 14.9745
" />
<path d="M31.1090 14.9745
L31.0485 15.0955
" />
<path d="M31.0485 15.0955
L30.9880 15.1560
" />
<path d="M30.9880 15.1560
L30.8671 15.2164
" />
<path d="M30.8671 15.2164
L30.6857 15.2164
" />
<path d="M31.5323 14.3698
L31.7742 15.2164
" />
<path d="M31.7742 15.2164
L32.0161 14.6117
" />
<path d="M32.0161 14.6117
L32.2580 15.2164
" />
<path d="M32.2580 15.2164
L32.4999 14.3698
" />
<path d="M33.4675 15.1560
L33.3466 15.2164
" />
<path d="M33.3466 15.2164
L33.1047 15.2164
" />
<path d="M33.1047 15.2164
L32.9837 15.1560
" />
<path d="M32.9837 15.1560
L32.9233 15.0350
" />
<path d="M32.9233 15.0350
L32.9233 14.5512
" />
<path d="M32.9233 14.5512
L32.9837 14.4302
" />
<path d="M32.9837 14.4302
L33.1047 14.3698
" />
<path d="M33.1047 14.3698
L33.3466 14.3698
" />
<path d="M33.3466 14.3698
L33.4675 14.4302
" />
<path d="M33.4675 14.4302
L33.5280 14.5512
" />
<path d="M33.5280 14.5512
L33.5280 14.6721
" />
<path d="M33.5280 14.6721
L32.9233 14.7931
" />
<path d="M34.0723 15.2164
L34.0723 14.3698
" />
<path d="M34.0723 14.6117
L34.1328 14.4907
" />
<path d="M34.1328 14.4907
L34.1933 14.4302
" />
<path d="M34.1933 14.4302
L34.3142 14.3698
" />
<path d="M34.3142 14.3698
L34.4352 14.3698
" />
<path d="M35.8261 15.2164
L35.8261 13.9464
" />
<path d="M35.8261 14.4302
L35.9471 14.3698
" />
<path d="M35.9471 14.3698
L36.1890 14.3698
" />
<path d="M36.1890 14.3698
L36.3099 14.4302
" />
<path d="M36.3099 14.4302
L36.3704 14.4907
" />
<path d="M36.3704 14.4907
L36.4309 14.6117
" />
<path d="M36.4309 14.6117
L36.4309 14.9745
" />
<path d="M36.4309 14.9745
L36.3704 15.0955
" />
<path d="M36.3704 15.0955
L36.3099 15.1560
" />
<path d="M36.3099 15.1560
L36.1890 15.2164
" />
<path d="M36.1890 15.2164
L35.9471 15.2164
" />
<path d="M35.9471 15.2164
L35.8261 15.1560
" />
<path d="M37.5194 14.3698
L37.5194 15.2164
" />
<path d="M36.9751 14.3698
L36.9751 15.0350
" />
<path d="M36.9751 15.0350
L37.0356 15.1560
" />
<path d="M37.0356 15.1560
L37.1566 15.2164
" />
<path d="M37.1566 15.2164
L37.3380 15.2164
" />
<path d="M37.3380 15.2164
L37.4589 15.1560
" />
<path d="M37.4589 15.1560
L37.5194 15.0955
" />
<path d="M38.0637 15.1560
L38.1846 15.2164
" />
<path d="M38.1846 15.2164
L38.4265 15.2164
" />
<path d="M38.4265 15.2164
L38.5475 15.1560
" />
<path d="M38.5475 15.1560
L38.6079 15.0350
" />
<path d="M38.6079 15.0350
L38.6079 14.9745
" />
<path d="M38.6079 14.9745
L38.5475 14.8536
" />
<path d="M38.5475 14.8536
L38.4265 14.7931
" />
<path d="M38.4265 14.7931
L38.2451 14.7931
" />
<path d="M38.2451 14.7931
L38.1241 14.7326
" />
<path d="M38.1241 14.7326
L38.0637 14.6117
" />
<path d="M38.0637 14.6117
L38.0637 14.5512
" />
<path d="M38.0637 14.5512
L38.1241 14.4302
" />
<path d="M38.1241 14.4302
L38.2451 14.3698
" />
<path d="M38.2451 14.3698
L38.4265 14.3698
" />
<path d="M38.4265 14.3698
L38.5475 14.4302
" />
</g></g> 
</svg>
